<svg width="56" height="104" viewBox="0 0 56 104" fill="none" xmlns="http://www.w3.org/2000/svg">
<g clip-path="url(#clip0_669_163)">
<rect x="-48" width="104" height="104" rx="52" fill="#02458D"/>
<path fill-rule="evenodd" clip-rule="evenodd" d="M-9.6783 62.0928L-16.8169 58.8117L12.7491 54.9754C13.2796 55.8917 13.7771 56.6949 14.3781 57.516L-9.6783 62.0928ZM69.6856 62.0928L76.8144 58.6145L47.401 54.8917C47.1465 55.8918 46.3649 56.6949 45.8443 57.516L69.6856 62.0928ZM65.3863 62.6363L56.4364 65.7991L43.7061 61.7084L42.5977 61.3358C43.0263 60.9795 43.3662 60.6329 43.7061 60.1583C44.2267 59.7002 44.6684 59.0825 45.166 58.6145L65.3863 62.6363ZM89.0224 53.7997L80.8427 57.8099L48.1647 53.7997C48.4422 52.9786 48.7066 52.1476 48.9447 51.3315L89.0224 53.7997ZM91.9423 52.5991L102.623 45.4195H44.8326C44.8326 47.983 44.4747 50.1606 43.7061 52.0787C41.4711 58.1614 35.8992 61.0811 30.2977 60.9792C24.798 60.8199 19.198 57.81 16.7199 52.2496C15.8381 50.2231 15.3225 48.0848 15.3225 45.4195H-42.6223L-32.0367 52.5991L12.2385 50.1605C13.076 53.5155 14.6491 56.4468 16.7199 58.6145C20.2506 62.5295 25.3136 64.7236 30.2977 64.7236C35.2029 64.8254 40.1754 62.9073 43.7061 58.7263C45.5963 56.5323 47.0545 53.7193 47.9101 50.3364L91.9423 52.5991ZM43.7061 71.1906L44.8326 73.3746L43.7061 73.9394L40.6959 75.3765L37.2785 68.1638C35.1174 68.9833 32.7084 69.4531 30.2977 69.527C27.7063 69.6452 25.0541 69.261 22.7402 68.458L19.8089 75.3765C18.863 75.4619 17.546 75.3765 16.7199 74.7443C16.2847 74.4602 15.8382 74.0019 15.6838 73.3746L16.7199 71.5404L19.198 66.8009C18.4229 66.2689 17.7382 65.8894 17.0484 65.1702L19.1291 62.5296C22.6598 64.8254 26.5075 66.0652 30.2977 66.0652C34.0764 66.1835 37.8615 64.8992 41.3808 62.2635L43.7061 62.9811L44.6685 63.3605C44.3056 63.6314 44.0576 63.8812 43.7061 64.1751C43.0263 64.8993 42.417 65.6351 41.302 66.269L43.7061 71.1906ZM43.7061 33.9293C45.9346 36.7588 47.5817 40.2318 48.4422 44.2273H44.7473C44.4747 43.0383 44.1479 41.8723 43.7061 40.7868C41.2231 33.8502 36.1373 28.9336 30.2977 24.8445C29.5291 24.3749 28.8327 23.8429 28.0576 23.3962C28.8327 23.6622 29.5291 23.9215 30.2977 24.2106C35.6266 26.4669 40.3577 29.5791 43.7061 33.9293ZM33.7151 59.6098C34.6938 59.4571 36.1372 58.8674 37.2785 57.9856L31.4176 45.6806L37.5167 42.6033L32.3685 37.8671L30.2977 38.8737L21.4265 43.1237L24.0293 49.3248L28.2219 47.3262L33.7151 59.6098ZM17.7382 61.3358C17.3982 61.0813 17.0484 60.7297 16.7199 60.4292C16.0236 59.8019 15.4243 59.1681 14.9777 58.5063L-5.19669 62.5624L3.38538 65.635L17.7382 61.3358ZM12.2385 53.7997C11.9002 52.9786 11.6506 52.1476 11.3796 51.3315L-29.0266 53.7997L-20.8567 57.9856L12.2385 53.7997Z" fill="white"/>
</g>
<defs>
<clipPath id="clip0_669_163">
<rect x="-48" width="104" height="104" rx="52" fill="white"/>
</clipPath>
</defs>
</svg>
