<svg width="65" height="48" viewBox="0 0 65 48" fill="none" xmlns="http://www.w3.org/2000/svg">
<path d="M8.5 39.4518H11.1667C12.6333 39.4518 13.8333 38.2518 13.8333 36.7852V14.1185H19.1667V36.7852C19.1667 38.2518 20.3667 39.4518 21.8333 39.4518C23.3 39.4518 24.5 38.2518 24.5 36.7852V14.1185H29.8333V36.7852C29.8333 38.2518 31.0333 39.4518 32.5 39.4518C33.9667 39.4518 35.1667 38.2518 35.1667 36.7852V14.1185H40.5V36.7852C40.5 38.2518 41.7 39.4518 43.1667 39.4518C44.6333 39.4518 45.8333 38.2518 45.8333 36.7852V14.1185H51.1667V36.7852C51.1667 38.2518 52.3667 39.4518 53.8333 39.4518H56.5V14.1185H63.1667V8.76518L32.5 0.547852L1.83333 8.76518V14.1185H8.5V39.4518ZM32.5 4.78518C33.9733 4.78518 35.1667 5.97851 35.1667 7.45184C35.1667 8.92518 33.9733 10.1185 32.5 10.1185C31.0267 10.1185 29.8333 8.92518 29.8333 7.45184C29.8333 5.97851 31.0267 4.78518 32.5 4.78518ZM0.5 42.1185V47.4518H64.5V42.1185H0.5Z" fill="#F04F48"/>
</svg>
