<svg width="80" height="80" viewBox="0 0 80 80" fill="none" xmlns="http://www.w3.org/2000/svg">
<g clip-path="url(#clip0_669_129)">
<rect width="80" height="80" rx="40" fill="white"/>
<path d="M37.5792 11.8945H42.2107C42.737 11.8945 43.1581 11.4734 43.1581 10.9471C43.1581 10.4208 42.737 9.99972 42.2107 9.99972H37.5792V11.8945ZM37.5792 16.3155H42.316C42.9476 16.3155 43.3686 15.8945 43.3686 15.2629C43.3686 14.6313 42.9476 14.2102 42.316 14.2102H37.5792V16.3155ZM45.0528 12.9471C45.6844 13.5787 46.1055 14.4208 46.1055 15.3681C46.1055 17.2629 44.6318 18.7366 42.737 18.7366H35.0528V7.68393H42.6318C44.4213 7.68393 45.8949 9.15761 45.8949 10.9471C45.7897 11.6839 45.4739 12.4208 45.0528 12.9471ZM46.8423 31.8945H44.0002L43.1581 29.9997H36.9476L36.1055 31.8945H33.2634L38.7371 20.8418H41.2634L46.8423 31.8945ZM40.0002 23.6839L38.1055 27.6839H41.8949L40.0002 23.6839ZM43.7897 34.3155H46.9476L41.3686 41.4734V45.3681H38.7371V41.4734L33.1581 34.3155H36.316L40.1055 39.3682L43.7897 34.3155ZM58.4213 34.3155V36.7366H51.0528V38.6313H58.2107V41.0524H51.0528V43.1576H58.4213V45.5787H48.4213V34.3155H58.4213ZM66.5265 41.1576H64.5265V45.3681H61.8949V34.3155H68.6318C70.5265 34.3155 72.0002 35.8945 72.0002 37.7892C72.0002 39.3682 70.9476 40.6313 69.5792 41.0524L72.8423 45.3681H69.6844L66.5265 41.1576ZM68.4213 36.6313H64.6318V38.7366H68.4213C69.0528 38.7366 69.4739 38.2103 69.4739 37.6839C69.4739 37.1576 68.9476 36.6313 68.4213 36.6313ZM34.316 45.3681H31.4739L30.6318 43.4734H24.4213L23.5792 45.3681H20.737L26.316 34.3155H28.8423L34.316 45.3681ZM27.4739 37.1576L25.5792 41.1576H29.4739L27.4739 37.1576ZM10.737 38.526H15.3686C15.8949 38.526 16.316 38.105 16.316 37.5787C16.316 37.0524 15.8949 36.6313 15.3686 36.6313H10.737V38.526ZM10.737 42.9471H15.4739C16.1055 42.9471 16.5265 42.526 16.5265 41.8945C16.5265 41.2629 16.1055 40.8418 15.4739 40.8418H10.737V42.9471ZM18.2107 39.5787C18.8423 40.2103 19.2634 41.0524 19.2634 41.9997C19.2634 43.8945 17.7897 45.3681 15.8949 45.3681H8.10547V34.3155H15.6844C17.4739 34.3155 18.9476 35.7892 18.9476 37.5787C18.9476 38.3155 18.6318 39.0524 18.2107 39.5787ZM45.0528 47.6839V50.105H37.6844V51.9997H44.8423V54.4208H37.6844V56.5261H45.0528V58.9471H35.0528V47.6839H45.0528ZM43.1581 64.8418C43.1581 64.2103 42.7371 63.7892 42.1055 63.7892H37.5792V65.8945H42.1055C42.7371 65.8945 43.1581 65.4734 43.1581 64.8418ZM34.9476 72.5261V61.4734H42.316C44.2107 61.4734 45.6844 63.0524 45.6844 64.9471C45.6844 66.4208 44.8423 67.5787 43.5792 68.105L46.9476 72.5261H43.7897L40.6318 68.3155H37.5792V72.5261H34.9476Z" fill="#10384F"/>
<path d="M79.8958 37.4737C78.6326 16.6316 61.2642 0 40.0011 0C18.7379 0 1.36948 16.6316 0.106323 37.4737C0.106323 38.3158 0.211586 39.1579 0.31685 40C1.15895 46.9474 3.79053 53.3684 7.79053 58.7369C15.0537 68.6316 26.7379 75.0527 40.0011 75.0527C21.4747 75.0527 6.31685 60.6316 5.05369 42.5263C4.94843 41.6842 4.94843 40.8421 4.94843 40C4.94843 39.1579 4.94843 38.3158 5.05369 37.4737C6.31685 19.3684 21.4747 4.94737 40.0011 4.94737C53.2642 4.94737 64.9484 11.3684 72.2116 21.2632C76.2116 26.6316 78.8432 33.0526 79.6853 40C79.7905 40.8421 79.8958 41.6842 79.8958 42.4211C79.8958 41.579 80.0011 40.7369 80.0011 39.8947C80.0011 39.1579 80.0011 38.3158 79.8958 37.4737Z" fill="#89D329"/>
<path d="M0.105263 42.5261C1.36842 63.3682 18.7368 79.9998 40 79.9998C61.2632 79.9998 78.6316 63.3682 79.8948 42.5261C79.8948 41.684 79.7895 40.8419 79.6842 39.9998C78.8421 33.0524 76.2106 26.6313 72.2105 21.2629C64.9474 11.3682 53.2632 4.94711 40 4.94711C58.5263 4.94711 73.6842 19.3682 74.9474 37.4734C75.0527 38.3155 75.0527 39.1576 75.0527 39.9998C75.0527 40.8419 75.0527 41.684 74.9474 42.5261C73.6842 60.7366 58.5263 75.0524 40 75.0524C26.7368 75.0524 15.0526 68.6313 7.78948 58.7366C3.78947 53.3682 1.1579 46.9471 0.31579 39.9998C0.210526 39.1576 0.105263 38.3155 0.105263 37.5787C0.105263 38.4208 0 39.2629 0 40.105C0 40.8419 7.84272e-09 41.684 0.105263 42.5261Z" fill="#00BCFF"/>
</g>
<defs>
<clipPath id="clip0_669_129">
<rect width="80" height="80" rx="40" fill="white"/>
</clipPath>
</defs>
</svg>
