<svg width="32" height="128" viewBox="0 0 32 128" fill="none" xmlns="http://www.w3.org/2000/svg">
<rect x="-96" width="128" height="128" rx="64" fill="#F1F1F1"/>
<path fill-rule="evenodd" clip-rule="evenodd" d="M-50.3674 32.1919C-50.1114 27.2319 -49.1514 22.7519 -48.1594 19.5519C-45.3434 21.3759 -41.7274 24.1919 -38.3674 27.8079C-36.4474 23.2319 -34.0154 19.3599 -31.9994 16.7039C-29.9834 19.3599 -27.5514 23.2639 -25.6314 27.8079C-22.2394 24.1919 -18.6234 21.3439 -15.8394 19.5519C-14.8474 22.7519 -13.9194 27.2319 -13.6314 32.1919C-9.21537 29.9519 -4.86337 28.5119 -1.59937 27.7759C-1.75938 31.1039 -2.39937 35.6479 -3.87137 40.3839C1.05663 39.7759 5.63263 39.9359 8.92863 40.3519C7.61663 43.4239 5.47263 47.4879 2.49664 51.4239C7.32864 52.5439 11.5846 54.2719 14.5606 55.7759C12.2886 58.2079 8.89662 61.2799 4.73663 63.9999C8.89662 66.6879 12.2886 69.7599 14.5606 72.2239C11.5846 73.7279 7.32864 75.4559 2.49664 76.5759C5.47263 80.5439 7.64863 84.5759 8.92863 87.6479C5.63263 88.0639 1.02463 88.2239 -3.87137 87.6159C-2.43137 92.3519 -1.79137 96.8959 -1.59937 100.224C-4.86337 99.4879 -9.21537 98.0479 -13.6314 95.8079C-13.8874 100.768 -14.8474 105.248 -15.8074 108.448C-18.6234 106.624 -22.2394 103.808 -25.5994 100.192C-27.5194 104.768 -29.9514 108.64 -31.9674 111.296C-33.9834 108.64 -36.4154 104.736 -38.3354 100.192C-41.7274 103.808 -45.3434 106.656 -48.1274 108.448C-49.1194 105.248 -50.0794 100.768 -50.3354 95.8079C-54.7514 98.0479 -59.1034 99.4879 -62.3674 100.224C-62.2074 96.8959 -61.5674 92.3519 -60.0954 87.6159C-65.0234 88.2239 -69.5994 88.0639 -72.8954 87.6479C-71.5834 84.5759 -69.4394 80.5119 -66.4634 76.5759C-71.2954 75.4559 -75.5514 73.7279 -78.5274 72.2239C-76.2874 69.7599 -72.8954 66.6879 -68.7354 63.9999C-72.8954 61.3119 -76.2874 58.2399 -78.5594 55.7759C-75.5834 54.2719 -71.3274 52.5439 -66.4954 51.4239C-69.4714 47.4559 -71.6474 43.4239 -72.9274 40.3519C-69.6314 39.9359 -65.0234 39.7759 -60.1274 40.3839C-61.5674 35.6479 -62.2074 31.1039 -62.3994 27.7759C-59.1354 28.5119 -54.7834 29.9199 -50.3674 32.1919Z" fill="#009846"/>
<path fill-rule="evenodd" clip-rule="evenodd" d="M-59.0382 68.7679C-62.5582 67.5839 -65.8222 65.8879 -68.7342 63.9999C-65.8222 62.1119 -62.5582 60.4159 -59.0382 59.2319C-61.9502 56.9279 -64.4462 54.2079 -66.5262 51.4239C-63.1342 50.6559 -59.4862 50.1759 -55.7742 50.2719C-57.6942 47.1039 -59.1342 43.7119 -60.1262 40.3839C-56.7022 40.7999 -53.0862 41.5999 -49.6302 42.9759C-50.3662 39.3279 -50.5262 35.6479 -50.3662 32.1919C-47.2942 33.7599 -44.1582 35.7439 -41.3742 38.2079C-40.8302 34.5279 -39.7102 31.0079 -38.3662 27.8399C-35.9982 30.3679 -33.7582 33.3119 -31.9982 36.5759C-30.2382 33.3119 -27.9662 30.3999 -25.6302 27.8399C-24.2862 31.0399 -23.1662 34.5599 -22.6222 38.2079C-19.8382 35.7439 -16.7342 33.7599 -13.6302 32.1919C-13.4382 35.6479 -13.6302 39.3279 -14.3662 42.9759C-10.9102 41.6319 -7.32618 40.8319 -3.87017 40.3839C-4.89417 43.7119 -6.30218 47.1039 -8.22218 50.2719C-4.51018 50.1759 -0.862175 50.6559 2.52982 51.4239C0.449829 54.1759 -2.04617 56.8959 -4.95818 59.2319C-1.43817 60.4159 1.82582 62.1119 4.73782 63.9999C1.82582 65.8879 -1.43817 67.5839 -4.95818 68.7679C-2.04617 71.0719 0.449829 73.7919 2.52982 76.5759C-0.862175 77.3439 -4.51018 77.8239 -8.22218 77.7279C-6.30218 80.8959 -4.86217 84.2879 -3.87017 87.6159C-7.29417 87.1999 -10.9102 86.3999 -14.3662 85.0239C-13.6302 88.6719 -13.4702 92.3519 -13.6302 95.8079C-16.7022 94.2399 -19.8382 92.2559 -22.6222 89.7919C-23.1662 93.4719 -24.2862 96.9919 -25.6302 100.16C-27.9982 97.6319 -30.2382 94.6879 -31.9982 91.4239C-33.7582 94.6879 -36.0302 97.5999 -38.3662 100.16C-39.7102 96.9599 -40.8302 93.4399 -41.3742 89.7919C-44.1582 92.2559 -47.2622 94.2399 -50.3662 95.8079C-50.5582 92.3519 -50.3662 88.6719 -49.6302 85.0239C-53.0862 86.3679 -56.6702 87.1679 -60.1262 87.6159C-59.1022 84.2879 -57.6942 80.8959 -55.7742 77.7279C-59.4862 77.8239 -63.1342 77.3439 -66.5262 76.5759C-64.4142 73.7919 -61.9182 71.0719 -59.0382 68.7679Z" fill="#B0CB1F"/>
</svg>
