<svg width="64" height="64" viewBox="0 0 64 64" fill="none" xmlns="http://www.w3.org/2000/svg">
<rect width="64" height="64" rx="32" fill="#F1F1F1"/>
<path d="M19.3828 17.9819C16.9995 19.0759 14.9997 20.2483 13.338 21.4496C11.5966 22.7127 9.99123 24.2851 9.54591 26.0183C9.09921 27.7446 9.73559 29.8956 10.6455 31.8432C11.5334 33.6877 12.7126 35.6779 14.2575 37.789C14.1984 37.1857 14.2177 36.6111 14.3345 36.0765C14.7042 34.3914 16.1336 32.8781 17.6936 31.6755C18.8276 30.8027 20.136 29.9519 21.652 29.1465C24.0848 27.8463 27.0316 26.6546 30.586 25.6692H30.5873C34.1472 24.6809 37.2919 24.182 40.0463 24.0446C40.1027 22.3334 40.0215 20.7693 39.8346 19.3508C39.5749 17.3991 38.9797 15.4048 37.7029 14.2406C37.2933 13.8695 36.7916 13.5589 36.2336 13.3074C33.6565 13.5946 30.7976 14.143 27.6364 15.0227H27.6336C24.471 15.8996 21.7386 16.9016 19.3828 17.9819Z" fill="url(#paint0_linear_669_148)"/>
<path d="M50.824 27.6387C51.0618 25.0355 51.0453 22.7278 50.857 20.6923C50.6618 18.5495 50.0694 16.3793 48.7994 15.1285C47.5308 13.8791 45.3441 13.3527 43.1972 13.1699C41.1589 12.9926 38.8374 13.016 36.2329 13.3087C36.7909 13.5603 37.2926 13.8709 37.7021 14.242C38.979 15.4061 39.5728 17.4005 39.8339 19.3522C40.0222 20.7706 40.1019 22.3347 40.0456 24.0459C39.9576 26.8031 39.5109 29.9506 38.5873 33.5227V33.5241C37.665 37.0991 36.5243 40.0692 35.2653 42.5268C36.7167 43.4284 38.1049 44.139 39.4257 44.6846C41.2496 45.4351 43.2714 45.9148 44.9194 45.3911C45.4513 45.2262 45.9653 44.9444 46.4643 44.5843C47.502 42.212 48.4558 39.47 49.275 36.3005C50.101 33.1049 50.5876 30.2268 50.824 27.6387Z" fill="url(#paint1_linear_669_148)"/>
<path d="M26.7151 50.063C24.6039 48.5648 22.3732 46.7038 20.0407 44.403C17.6918 42.0994 15.791 39.8838 14.2571 37.7905C14.198 37.1871 14.2172 36.6126 14.3341 36.078C14.7038 34.3929 16.1332 32.8796 17.6932 31.677C18.8271 30.8042 20.1356 29.9534 21.6516 29.148C23.1442 31.4653 25.1496 33.9338 27.7803 36.5192C30.4123 39.1086 32.9166 41.0672 35.2655 42.5255C36.7169 43.4271 38.1051 44.1377 39.426 44.6834C41.2499 45.4338 43.2717 45.9135 44.9196 45.3898C45.4515 45.2249 45.9656 44.9432 46.4645 44.583C45.4227 46.9705 44.2956 48.9758 43.1328 50.6512C41.8958 52.438 40.3359 54.0915 38.5999 54.5725C36.8654 55.0563 34.6745 54.4406 32.6967 53.5458C30.8371 52.7088 28.8358 51.5666 26.7151 50.063Z" fill="url(#paint2_linear_669_148)"/>
<defs>
<linearGradient id="paint0_linear_669_148" x1="9.97424" y1="29.4501" x2="50.6829" y2="18.1619" gradientUnits="userSpaceOnUse">
<stop stop-color="#E22428"/>
<stop offset="0.3412" stop-color="#E02428"/>
<stop offset="0.4641" stop-color="#D92226"/>
<stop offset="0.5517" stop-color="#CE2024"/>
<stop offset="0.6225" stop-color="#BD1D21"/>
<stop offset="0.6832" stop-color="#A7191C"/>
<stop offset="0.736" stop-color="#8C1517"/>
<stop offset="0.7747" stop-color="#731012"/>
</linearGradient>
<linearGradient id="paint1_linear_669_148" x1="45.8257" y1="13.3374" x2="34.9229" y2="54.0852" gradientUnits="userSpaceOnUse">
<stop stop-color="#0E7DC1"/>
<stop offset="0.1572" stop-color="#0E7BBE"/>
<stop offset="0.2887" stop-color="#0D74B3"/>
<stop offset="0.4111" stop-color="#0C69A2"/>
<stop offset="0.5279" stop-color="#0A5989"/>
<stop offset="0.6407" stop-color="#08446A"/>
<stop offset="0.7506" stop-color="#052B43"/>
<stop offset="0.8561" stop-color="#020D16"/>
<stop offset="0.8956" stop-color="#010103"/>
</linearGradient>
<linearGradient id="paint2_linear_669_148" x1="17.0721" y1="31.308" x2="41.8309" y2="51.7247" gradientUnits="userSpaceOnUse">
<stop stop-color="#595959"/>
<stop offset="0.1078" stop-color="#737373"/>
<stop offset="0.2876" stop-color="#979797"/>
<stop offset="0.4682" stop-color="#B4B4B4"/>
<stop offset="0.6477" stop-color="#C8C8C8"/>
<stop offset="0.8256" stop-color="#D5D5D5"/>
<stop offset="1" stop-color="#D9D9D9"/>
</linearGradient>
</defs>
</svg>
