<svg width="59" height="64" viewBox="0 0 59 64" fill="none" xmlns="http://www.w3.org/2000/svg">
<path d="M24.5997 4.4587L26.2438 7.30619H32.7581L34.4022 4.4587H34.3675C34.7515 3.98686 34.9893 3.39614 34.9893 2.74325C34.9893 1.22898 33.7603 0 32.246 0C31.9242 0 31.6187 0.0658432 31.3316 0.168258V1.82883H27.674V0.168258C27.3868 0.0658432 27.0814 0 26.7595 0C25.2453 0 24.0163 1.22898 24.0163 2.74325C24.0163 3.39614 24.254 3.98686 24.6344 4.4587H24.5997ZM58.658 20.4244C58.6599 19.2594 58.3252 18.1841 57.7838 17.2386C57.7838 17.2386 49.0676 22.2862 48.2209 22.7616C46.8749 23.5188 45.9861 22.0301 45.9861 22.0301L52.2809 18.3834C56.0849 16.1815 57.3852 11.3186 55.1887 7.51833C54.4645 6.26009 53.4312 5.3091 52.2608 4.62877L42.0303 22.4105C42.204 22.8293 42.3046 23.2902 42.3046 23.7748C42.3046 25.7939 40.666 27.4325 38.6469 27.4325C36.6279 27.4325 34.9893 25.7939 34.9893 23.7748V16.4595H42.3046C42.3046 13.4273 39.8485 10.973 36.8145 10.973H32.6283L33.8097 13.0195C31.3993 15.3165 29.8375 18.473 29.5759 22.0027C29.5577 21.8491 29.5266 21.7009 29.5046 21.5491C29.4827 21.7009 29.4516 21.8491 29.4333 22.0027C29.1699 18.473 27.61 15.3165 25.1995 13.0195L26.3773 10.973H22.1911C19.1571 10.973 16.701 13.4273 16.701 16.4595H24.0163V23.7748C24.0163 25.7939 22.3777 27.4325 20.3586 27.4325C18.3396 27.4325 16.701 25.7939 16.701 23.7748C16.701 23.2902 16.8015 22.8293 16.9698 22.4069L6.73931 4.62512C5.56885 5.30544 4.5374 6.25827 3.81135 7.51467C1.61492 11.315 2.91522 16.1779 6.71919 18.3798L13.014 22.0265C13.014 22.0265 12.127 23.5151 10.7792 22.758C9.93245 22.2825 1.21623 17.2349 1.21623 17.2349C0.674891 18.1823 0.34022 19.2558 0.342049 20.4207C0.336562 23.9486 3.19502 26.807 6.7265 26.8088C6.7265 26.8088 11.2693 26.818 11.2968 26.818C11.3114 27.3337 10.8944 28.6871 9.49535 28.6871L3.30842 28.6852C3.31025 29.5082 3.49862 30.3385 3.9412 31.0993C5.27076 33.4091 8.217 34.1992 10.5305 32.8678L12.3575 31.8162C12.6428 32.2387 13.1256 33.4859 11.807 34.2595L9.15702 35.7903C9.47341 36.3371 9.91416 36.8181 10.4994 37.1527C12.2715 38.1769 14.532 37.5697 15.5598 35.7976L15.8158 35.3586C16.3132 35.5726 17.2405 36.7723 16.5382 38.0086C16.028 38.9047 15.7536 39.3656 15.7536 39.3656C16.1962 39.6198 16.7028 39.7808 17.2533 39.7808C18.9157 39.7808 20.2635 38.4347 20.2635 36.7668C20.2635 36.7668 20.2763 36.156 20.355 36.1487C22.0686 36.1487 23.7054 37.7855 23.7054 39.885L16.701 43.892V47.5496L11.4412 48.9597L4.93791 37.5313L2.77623 38.7804L11.9204 54.6181L14.0821 53.369L12.8366 51.2073H16.701C18.72 51.2073 20.3586 49.5687 20.3586 47.5496H25.569L27.4819 50.8617L17.1161 56.8456L21.9479 59.6346L25.3623 56.2201L27.1271 56.6938L25.75 61.8328L29.5028 64L33.2556 61.8328L31.8784 56.6938L33.6451 56.2201L37.0595 59.6346L41.8913 56.8456L31.5273 50.8617L33.4384 47.5496H38.6469C38.6469 49.5687 40.2856 51.2073 42.3046 51.2073H49.6199C51.639 51.2073 53.2776 49.5687 53.2776 47.5496C53.2776 45.5306 51.639 43.892 49.6199 43.892C47.6009 43.892 45.9623 45.5306 45.9623 47.5496C45.9623 47.9099 46.0299 48.2501 46.1269 48.5774L42.3046 47.5496V43.892L35.2965 39.8887C35.2965 37.7892 36.9352 36.1524 38.6469 36.1524C38.7256 36.1597 38.7384 36.7705 38.7384 36.7705C38.7384 38.4384 40.0862 39.7844 41.7486 39.7844C42.301 39.7844 42.8057 39.6235 43.2483 39.3693C43.2483 39.3693 42.9758 38.9084 42.4637 38.0123C41.7596 36.776 42.6868 35.5763 43.1861 35.3623L43.4422 35.8012C44.47 37.5734 46.7304 38.1805 48.5025 37.1564C49.0878 36.8217 49.5303 36.3407 49.8449 35.7939L47.1949 34.2632C45.8763 33.4896 46.3591 32.2441 46.6444 31.8199L48.4714 32.8714C50.7849 34.2047 53.7312 33.4128 55.0607 31.103C55.5033 30.3422 55.6917 29.5119 55.6935 28.6889L49.5066 28.6907C48.1057 28.6907 47.6905 27.3374 47.7052 26.8217C47.7326 26.8217 52.2754 26.8125 52.2754 26.8125C55.8069 26.8107 58.6635 23.9522 58.658 20.4244Z" fill="#F04F48"/>
</svg>
