<svg width="64" height="64" viewBox="0 0 64 64" fill="none" xmlns="http://www.w3.org/2000/svg">
<rect width="64" height="64" rx="32" fill="#F1F1F1"/>
<path d="M52.2991 32.4761C52.2991 31.0682 52.1849 29.6527 51.9414 28.2677H32.4062V36.2431H43.5931C43.1289 38.8153 41.6373 41.0907 39.4532 42.5366V47.7115H46.1273C50.0465 44.1043 52.2991 38.7772 52.2991 32.4761Z" fill="#4285F4"/>
<path d="M32.4031 52.7107C37.9889 52.7107 42.6996 50.8767 46.1318 47.7109L39.4577 42.536C37.6008 43.7993 35.2036 44.5146 32.4107 44.5146C27.0075 44.5146 22.4263 40.8694 20.7825 35.9685H13.8953V41.3032C17.4112 48.2969 24.5723 52.7107 32.4031 52.7107Z" fill="#34A853"/>
<path d="M20.778 35.969C19.9104 33.3968 19.9104 30.6115 20.778 28.0393V22.7046H13.8984C10.9609 28.5568 10.9609 35.4515 13.8984 41.3037L20.778 35.969Z" fill="#FBBC04"/>
<path d="M32.4031 19.4853C35.3558 19.4396 38.2096 20.5507 40.3481 22.5902L46.2611 16.6772C42.517 13.1613 37.5476 11.2283 32.4031 11.2892C24.5723 11.2892 17.4112 15.7031 13.8953 22.7044L20.7749 28.0391C22.411 23.1305 26.9999 19.4853 32.4031 19.4853Z" fill="#EA4335"/>
</svg>
