<svg width="104" height="104" viewBox="0 0 104 104" fill="none" xmlns="http://www.w3.org/2000/svg">
<g clip-path="url(#clip0_669_467)">
<rect x="-0.000244141" width="104" height="104" rx="52" fill="#F1F1F1"/>
<path fill-rule="evenodd" clip-rule="evenodd" d="M91.273 42.9087L82.615 53.9847L82.641 60.8227L75.075 60.7707L75.153 53.8287L66.651 42.9087H74.737L79.001 48.4987L82.823 42.9087H91.273ZM64.285 43.2727L57.681 51.9827L64.285 60.8227H55.263L51.987 56.4547L48.607 60.8227H39.689L46.345 51.9827L39.689 43.0127H48.243L52.117 48.4467L55.679 43.2727H64.285ZM36.725 57.7287C36.725 57.7287 36.673 50.6567 36.725 46.8087C36.777 42.9867 33.683 43.2987 33.683 43.2987C33.683 43.2987 20.579 43.3507 16.809 43.2987C13.039 43.2467 12.727 46.8087 12.727 46.8087V54.9467V57.7287C12.727 60.5107 16.497 61.1087 16.497 61.1087C16.497 61.1087 29.289 61.2127 33.501 61.1087C37.713 61.0047 36.725 57.7287 36.725 57.7287ZM29.653 54.2967C29.653 54.2967 29.913 55.9087 28.665 55.9607C27.417 56.0127 21.333 55.9347 21.333 55.9347C21.333 55.9347 20.033 55.5707 20.345 54.2707V49.6947C20.345 49.6947 20.215 48.5247 21.333 48.5247H28.223C28.223 48.5247 29.705 48.1607 29.653 49.8247C29.601 51.5147 29.653 54.2967 29.653 54.2967Z" fill="#D14C49"/>
<path fill-rule="evenodd" clip-rule="evenodd" d="M66.9902 36.7724H89.2202C83.1362 22.2124 69.1742 9.8104 48.4782 11.3184C30.8242 12.6184 20.5802 23.7204 14.2102 36.7724C19.4362 29.2324 26.8982 22.3424 37.7922 21.5104C50.6102 20.5224 61.8422 27.9844 66.9902 36.7724ZM89.5065 67.4524C84.2545 74.9664 76.7665 81.8304 65.8465 82.5844C53.0025 83.4944 41.8225 75.9544 36.7005 67.1404C32.9955 67.1144 29.2905 67.0949 25.5855 67.0754C21.8805 67.0559 18.1755 67.0364 14.4705 67.0104C20.4765 81.5964 34.3605 94.1024 55.0565 92.6984C72.7365 91.5024 83.0585 80.4784 89.5065 67.4524Z" fill="#526BAF"/>
</g>
<defs>
<clipPath id="clip0_669_467">
<rect x="-0.000244141" width="104" height="104" rx="52" fill="white"/>
</clipPath>
</defs>
</svg>
