<svg width="104" height="104" viewBox="0 0 104 104" fill="none" xmlns="http://www.w3.org/2000/svg">
<g clip-path="url(#clip0_669_435)">
<rect x="-0.000244141" width="104" height="104" rx="52" fill="#FCEC3A"/>
<path d="M43.4042 22.6891H43.3705L43.4042 22.6554V22.6891ZM95.7327 49.3749L96.9105 45.5386L93.0406 45.6732C92.7041 45.6732 90.3484 45.6059 88.0601 43.8897C88.2284 43.8897 88.3966 43.9233 88.5649 43.9233C90.9205 43.9233 93.2088 42.4763 94.1511 40.3563L95.8 36.5873C93.7136 36.6209 91.8291 36.3517 91.8291 36.3517C91.8291 36.3517 90.3148 36.1498 88.5649 34.3326C87.3198 33.0202 85.7718 32.3471 84.1229 32.3471C83.3825 32.3471 82.7431 32.4817 82.1711 32.65C82.272 32.3471 82.3393 32.0443 82.4066 31.7077C82.945 28.1743 80.724 25.4485 80.724 25.4485L77.83 21.7468L76.0464 26.0879C76.0464 26.0879 75.5753 27.1311 74.7677 27.6022C74.5321 26.3235 73.9264 24.8764 72.6476 23.5304C70.2247 20.9392 67.2633 20.569 65.7153 20.569C65.0086 20.569 64.5039 20.6363 64.3693 20.67L60.8695 21.3766C61.0714 20.569 61.5088 19.1556 62.2828 17.9105L64.201 14.8145L59.2878 15.3866L57.7398 11.9878L54.7448 13.5694L51.9854 10.7427L49.2259 13.5694L46.2309 11.9878L44.6829 15.3866L39.8371 14.8145L41.7552 17.9105C42.5292 19.1556 42.9667 20.569 43.1686 21.3766L39.8371 20.7036L39.7361 20.67C39.5679 20.6363 39.0631 20.569 38.3564 20.569C36.8084 20.569 33.8471 20.9392 31.4241 23.5304C30.1454 24.9101 29.5396 26.3235 29.2704 27.6022C28.4628 27.0974 28.0253 26.1215 28.0253 26.1215L26.2081 21.7468L23.2468 25.4485C22.8766 25.9196 21.1267 28.4772 21.5978 31.6741C21.6315 31.977 21.7324 32.3135 21.7997 32.6163C21.2276 32.4481 20.5883 32.3135 19.8479 32.3135C18.1653 32.3135 16.651 33.0202 15.4059 34.2989C13.6896 36.1161 12.1753 36.318 12.209 36.318C12.209 36.318 10.6273 36.6209 8.20441 36.5536L9.85334 40.3226C10.7619 42.409 13.0503 43.8897 15.4395 43.8897C15.6078 43.8897 15.7761 43.856 15.978 43.856C13.6896 45.5723 11.3004 45.6396 11.0312 45.6396L7.09389 45.505L8.27171 49.3413C8.87744 51.3267 10.8629 54.591 14.6992 54.9611C14.2954 56.7447 13.3531 58.7638 11.334 59.6387L8.37266 60.8838L9.9543 63.7443C10.8629 65.2922 12.983 67.0758 15.978 67.0758C16.6174 67.0758 17.2567 67.0085 17.8625 66.8739C18.0307 67.5806 18.199 68.2872 18.4345 68.9939C19.3431 71.7534 18.5692 73.6379 18.5355 73.6715L17.0885 76.8011L20.3191 77.6761C20.3527 77.6761 21.3286 77.979 22.5401 77.979C23.0785 77.979 23.6169 77.9117 24.1217 77.8107C24.4919 77.7097 24.862 77.6088 25.1986 77.4405C25.6024 78.2145 26.1072 78.9212 26.7129 79.5269C28.7657 81.7143 31.6934 82.8248 35.4287 82.8248L38.1209 82.7575L32.6356 85.1131L36.7748 87.1659C38.2891 87.9062 40.0727 88.8148 41.8899 89.4879L41.3851 90.9349L42.8321 91.6079C42.9667 91.6752 45.7262 92.9203 50.3028 93.1896C50.3028 93.1896 51.4133 93.2569 52.019 93.2569C52.6248 93.2569 53.7016 93.1896 53.7016 93.1896C58.2446 92.9203 60.9704 91.6416 61.105 91.6079L62.5521 90.9349L62.0136 89.4879C63.8981 88.7812 65.749 87.8389 67.196 87.1322L71.2679 85.0795L65.8499 82.7575L68.5084 82.7912C72.2101 82.7912 75.1378 81.6807 77.2242 79.4933C77.7963 78.8539 78.3347 78.1809 78.7386 77.4069C79.0751 77.5415 79.4453 77.6761 79.8154 77.777C80.3202 77.9117 80.825 77.9453 81.3971 77.9453C82.6085 77.9453 83.5844 77.6761 83.6181 77.6761L86.8487 76.8011L85.4353 73.7388C85.4016 73.6715 84.6276 71.7534 85.5362 68.9939C85.7718 68.2872 85.94 67.5806 86.1083 66.8739C86.714 67.0085 87.3534 67.0758 87.9928 67.0758C91.8291 67.0758 93.68 64.3163 94.0165 63.7106L95.5981 60.8838L92.6704 59.6387C90.6513 58.7638 89.7091 56.7447 89.3052 54.9611C93.0742 54.6246 95.0933 51.3604 95.7327 49.3749Z" fill="#FEFEFE"/>
<path d="M51.9861 22.5205C48.8902 22.5205 46.5682 23.5637 46.0634 24.8088L51.9861 27.2318L57.9089 24.8088C57.4041 23.5637 55.0821 22.5205 51.9861 22.5205Z" fill="#FEFEFE"/>
<path d="M52.0519 86.2237H51.9173C50.0328 86.2237 47.4416 85.8536 46.1965 85.4834L44.6822 89.6562C45.6581 90.0264 49.0233 90.6994 51.951 90.6994C54.8787 90.6994 58.2102 89.9927 59.2197 89.6562L57.7391 85.4834C56.494 85.8199 53.9364 86.2237 52.0519 86.2237Z" fill="#FEFEFE"/>
<path d="M63.3952 82.0513C62.2847 82.6907 59.7944 83.6666 58.3474 84.1377L59.5589 87.5702C61.8135 86.9308 63.6644 86.1904 65.1787 85.4164L62.6548 84.5752L63.3952 82.0513Z" fill="#FEFEFE"/>
<path d="M40.5802 82.0513L41.3205 84.5415L38.7966 85.4164C40.311 86.1904 42.1955 86.9308 44.4165 87.5702L45.6279 84.1377C44.2146 83.7002 41.6907 82.7243 40.5802 82.0513Z" fill="#FEFEFE"/>
<path d="M51.9845 18.5501C54.3065 18.5501 56.5948 19.1222 58.3784 20.1318C58.5466 19.5933 58.7486 18.8866 59.0851 18.18L58.412 18.2473L57.7054 18.3146L57.4025 17.6752L56.5275 15.757L54.9123 16.632L54.2729 16.9685L53.7681 16.4637L52.0182 14.6802L50.2683 16.4637L49.7635 16.9685L49.1241 16.632L47.5089 15.757L46.6339 17.6752L46.331 18.3146L45.6244 18.2473L44.9513 18.18C45.2542 18.8866 45.4898 19.5597 45.658 20.1318C47.3743 19.1222 49.6626 18.5501 51.9845 18.5501Z" fill="#FEFEFE"/>
<path d="M87.6586 40.8951C87.9615 40.9961 88.2643 41.0634 88.5672 41.0634C89.8796 41.0634 91.1584 40.1884 91.5959 39.1789C91.5959 39.1789 89.1729 39.0443 86.5818 36.3185C85.7405 35.4435 84.8655 35.1743 84.1252 35.1743C82.9474 35.1743 82.0724 35.8137 82.0724 35.8137C85.202 37.5299 85.8414 40.2894 87.6586 40.8951Z" fill="#FEFEFE"/>
<path d="M15.4038 41.0633C15.7067 41.0633 16.0095 41.0297 16.3124 40.8951C18.096 40.2893 18.769 37.4962 21.8986 35.78C21.8986 35.78 21.0237 35.1406 19.8458 35.1406C19.1055 35.1406 18.1969 35.4098 17.3893 36.2848C14.7981 39.0106 12.3752 39.1452 12.3752 39.1452C12.8126 40.1884 14.0914 41.0633 15.4038 41.0633Z" fill="#FEFEFE"/>
<path d="M86.6826 60.7495C84.2597 59.5044 82.7117 56.2402 82.3415 55.0623C81.9377 61.5571 78.8417 66.0665 75.241 70.4076C73.3902 72.6622 72.7508 74.8496 72.7508 74.8496C72.7508 74.8496 73.1209 72.3594 74.7362 70.3402C78.1014 66.1674 81.2983 61.0187 81.5339 55.0287C81.7022 50.8559 80.6589 47.457 79.01 44.6639C79.9186 47.558 79.784 51.1251 76.688 54.4566C76.688 54.4566 82.8463 46.8513 74.2315 39.0777C70.799 36.1164 66.9963 34.2992 65.0782 32.9868C72.0777 35.3424 75.5102 32.7512 75.5102 32.7512C73.2556 34.7367 70.3615 34.703 68.578 34.4338C69.0827 34.6693 69.5875 34.9386 70.1259 35.2414C76.0486 38.5393 81.3656 43.9909 82.2742 51.5289V51.4616C83.6203 58.865 86.6826 60.7495 86.6826 60.7495ZM88.4998 52.1346C88.5671 52.1346 88.6008 52.1346 88.6681 52.1346C91.9659 52.1346 93.0765 48.5002 93.0765 48.5002H93.0092C92.4034 48.5002 87.4903 48.3656 84.0241 43.8226C81.7358 40.8276 79.885 38.2364 76.1833 37.1932L75.8131 37.1259L75.7458 36.7558C75.6448 36.1837 76.015 35.6452 76.9236 35.0395C82.005 31.607 78.5725 27.2323 78.5725 27.2323C78.5725 27.2323 77.1255 30.7321 73.8613 30.7321C73.794 30.7321 73.693 30.7321 73.6257 30.7321C73.2556 30.6984 72.8854 30.6984 72.5489 30.6311L71.9431 30.4965C71.9431 30.4965 72.8854 27.9053 70.6307 25.5161C68.9481 23.7325 66.8954 23.396 65.7176 23.396C65.1118 23.396 64.7417 23.4633 64.7417 23.4633C65.8522 24.9776 66.6935 27.5015 65.381 29.0495C64.2705 30.3956 61.5111 30.4292 61.5111 32.4147C61.5111 33.256 62.2851 34.2319 63.6311 35.1068C67.7703 37.7653 71.8422 41.3324 73.5584 46.0773C75.6785 52 73.2892 55.9373 69.8567 58.192C69.8567 58.192 70.9336 59.2015 72.4816 59.3361C72.7844 59.3698 73.1209 59.3698 73.3902 59.3698C76.688 59.3698 78.3706 57.7881 78.3706 57.7881C78.3706 57.7881 78.1014 59.9755 76.3852 61.9946C74.8035 63.8791 72.7508 64.9896 69.5875 65.0233C69.5875 65.0233 69.4866 66.5376 70.8999 67.85C71.8085 68.6577 73.8613 68.9269 73.8613 68.9269C73.8613 68.9269 69.9913 69.7345 69.5539 75.6236C69.3183 78.8205 68.5443 79.8974 68.5443 79.8974H68.6116C77.5966 79.8974 77.3611 71.9892 77.3611 71.9892C77.3611 71.9892 78.0005 74.3448 80.4907 74.9505C80.7936 75.0178 81.1301 75.0515 81.4329 75.0515C82.2406 75.0515 82.9473 74.8496 82.9473 74.8496C82.9473 74.8496 81.6348 71.9892 82.9473 68.0183C84.0241 64.7204 83.8559 62.2638 83.8559 62.2638C83.8559 62.2638 85.0673 64.1483 88.0623 64.1483H88.096C90.5862 64.1483 91.6631 62.1965 91.6631 62.1965C85.6731 59.639 86.2788 51.3943 86.2788 51.3943C86.2788 51.3943 86.9855 52.101 88.4998 52.1346Z" fill="#FEFEFE"/>
<path d="M28.7329 70.4076C25.1321 66.0665 22.0362 61.5572 21.6323 55.0624C21.2622 56.2402 19.7142 59.5044 17.2913 60.7496C17.2913 60.7496 20.3536 58.8651 21.7333 51.4617V51.529C22.6419 43.991 27.9589 38.573 33.8816 35.2415C34.42 34.9386 34.9248 34.6694 35.4296 34.4339C33.646 34.7367 30.7183 34.7704 28.4973 32.7513C28.4973 32.7513 31.9298 35.3425 38.9294 32.9868C36.9776 34.2993 33.2086 36.1165 29.7761 39.0778C21.1612 46.8514 27.3195 54.4567 27.3195 54.4567C24.2235 51.1252 24.0889 47.5917 24.9975 44.664C23.3822 47.4571 22.339 50.8559 22.4736 55.0288C22.7092 61.0188 25.9061 66.2011 29.2713 70.3403C30.8866 72.3594 31.2567 74.8497 31.2567 74.8497C31.2567 74.8497 30.5837 72.6623 28.7329 70.4076ZM30.1462 68.9943C30.1462 68.9943 32.199 68.725 33.1076 67.9174C34.4873 66.605 34.3864 65.0906 34.3864 65.0906C31.2231 65.057 29.1703 63.9465 27.5887 62.062C25.9061 60.0429 25.6032 57.8555 25.6032 57.8555C25.6032 57.8555 27.2858 59.4371 30.5837 59.4371C30.8866 59.4371 31.1894 59.4371 31.4923 59.4035C33.0403 59.2689 34.1172 58.2593 34.1172 58.2593C30.6847 56.0047 28.2954 52.0674 30.4155 46.1447C32.1317 41.3998 36.2036 37.8663 40.3427 35.1742C41.7225 34.2993 42.4628 33.3234 42.4628 32.4821C42.4628 30.4966 39.737 30.4293 38.5928 29.1169C37.2804 27.5689 38.1217 25.045 39.2322 23.5307C39.2322 23.5307 38.8621 23.4634 38.2563 23.4634C37.0785 23.4634 35.0257 23.7662 33.3432 25.5834C31.0885 27.9727 32.0307 30.5639 32.0307 30.5639L31.425 30.6985C31.0548 30.7658 30.7183 30.7995 30.3481 30.7995C30.2472 30.7995 30.1799 30.7995 30.1126 30.7995C26.8484 30.7995 25.4013 27.2997 25.4013 27.2997C25.4013 27.2997 21.9352 31.6744 27.0503 35.1069C27.9252 35.679 28.2954 36.2511 28.1944 36.8231L28.1271 37.1933L27.757 37.2606C24.0553 38.3038 22.2044 40.895 19.9161 43.89C16.45 48.433 11.5705 48.5676 10.9311 48.5676H10.8974C10.8974 48.5676 12.0079 52.202 15.3058 52.202C15.3731 52.202 15.4068 52.202 15.4741 52.202C16.9884 52.1347 17.7624 51.5626 17.7624 51.5626C17.7624 51.5626 18.3345 59.8073 12.3781 62.3648C12.3781 62.3648 13.455 64.3167 15.9788 64.3167H16.0125C19.0075 64.283 20.219 62.4321 20.219 62.4321C20.219 62.4321 20.0507 64.8887 21.1276 68.1866C22.44 72.1575 21.1276 75.0179 21.1276 75.0179C21.1276 75.0179 21.8342 75.2198 22.6419 75.2198C22.9448 75.2198 23.2813 75.1862 23.5841 75.1189C26.0744 74.5131 26.7138 72.1575 26.7138 72.1575C26.7138 72.1575 26.4782 80.0657 35.4632 80.0657H35.5305C35.5305 80.0657 34.7565 78.9552 34.521 75.7919C34.0162 69.8019 30.1462 68.9943 30.1462 68.9943Z" fill="#FEFEFE"/>
<path d="M49.966 39.8182H54.2061V41.2989C53.7014 40.6595 52.7255 40.7941 52.7255 40.7941V42.9479C52.7255 42.9479 52.7591 43.9911 53.1293 44.4622H51.0429C51.413 43.9911 51.4467 42.9479 51.4467 42.9479V40.7941C51.4467 40.7941 50.4708 40.6595 49.966 41.2989V39.8182ZM45.3557 40.0201C45.4903 40.1884 45.6586 40.3567 45.7932 40.5249C45.8268 40.5586 45.8605 40.5922 45.8942 40.6595C46.0288 40.8278 46.1634 41.0297 46.2643 41.198C46.298 41.2316 46.3316 41.2653 46.3653 41.3326C46.4999 41.5681 46.6681 41.8037 46.8028 42.0729C48.0815 44.3612 50.1679 45.741 52.0188 45.741C53.8696 45.741 55.9224 44.3612 57.2348 42.0729C57.3694 41.8037 57.5377 41.5681 57.6723 41.3326C57.7059 41.2989 57.7059 41.2653 57.7396 41.2316C57.8742 41.0297 58.0088 40.8278 58.1434 40.6595C58.1771 40.6259 58.2107 40.5922 58.2444 40.5586C58.379 40.3567 58.5472 40.1884 58.6818 40.0201C58.7155 39.9865 58.7155 39.9528 58.7491 39.9528C59.4222 39.2462 60.1962 38.7414 61.2394 38.4385L60.7682 38.1693H60.7346L58.9174 37.0924L57.0329 35.9819L52.0188 38.775L47.0047 35.9819L45.1202 37.0924L43.303 38.1693H43.2693L42.7982 38.4385C43.8414 38.7414 44.6154 39.2462 45.2884 39.9528C45.2884 39.9865 45.3221 40.0201 45.3557 40.0201Z" fill="#FEFEFE"/>
<path d="M50.4032 30.3287V31.7421L50.134 31.6075C50.134 31.6075 49.7302 31.5066 49.0571 30.9681C47.9466 30.0932 47.913 29.2519 47.913 29.2519L50.4032 30.3287ZM51.5474 36.9245V28.175L46.1294 26.2905L47.5428 34.7708L51.5474 36.9245Z" fill="#FEFEFE"/>
<path d="M53.5686 30.3282L56.0252 29.2514C56.0252 29.2514 55.9915 30.059 54.881 30.9676C54.208 31.506 53.8378 31.607 53.8042 31.607L53.5349 31.7416V30.3282H53.5686ZM56.3953 34.7366L57.8087 26.2563L52.3908 28.1408V36.8903C52.4244 36.924 56.3953 34.7366 56.3953 34.7366Z" fill="#FEFEFE"/>
<path d="M43.9102 57.1825C44.4486 57.3844 45.088 57.418 45.3909 57.418C45.3909 57.3844 45.4245 57.3171 45.4245 57.2498C45.4582 57.1488 45.4918 57.0479 45.4918 56.9469C45.5928 56.4758 45.6264 55.9037 45.6264 55.5672C45.3909 55.4326 45.088 55.1634 44.9197 54.7932C44.7178 54.3557 44.4486 54.1538 44.0112 54.1538C43.4727 54.1538 42.867 54.4903 42.6314 54.6586C42.4632 55.87 43.3381 56.9469 43.9102 57.1825Z" fill="#FEFEFE"/>
<path d="M55.8554 52.5381C54.8459 53.6486 52.8941 55.634 52.7931 55.7013L52.6921 55.836L46.4666 55.735C46.4666 56.3744 46.3656 56.9128 46.2646 57.3166C46.2646 57.3839 46.231 57.4512 46.231 57.5185L53.6344 58.8983C54.4084 58.3598 56.5284 56.7446 57.3361 56.1388C56.7304 55.2302 56.6967 54.187 56.8313 53.413C56.3938 53.1438 56.091 52.841 55.8554 52.5381Z" fill="#FEFEFE"/>
<path d="M56.6989 44.8662C55.2518 46.3132 53.9058 46.8517 52.6607 46.9863C52.4251 47.0199 52.2232 47.0199 51.9876 47.0199H51.954C51.7184 47.0199 51.4828 47.0199 51.2809 46.9863C51.079 46.9526 50.8435 46.919 50.6079 46.8853C50.5406 47.2218 50.4396 47.8949 50.7089 48.5679C50.9781 49.1736 51.4828 49.6111 52.2568 49.8803L52.5597 49.9476V50.2505C52.5597 50.3515 52.627 52.2023 54.5788 52.7071C54.9153 52.3706 55.1845 52.0677 55.4201 51.7985C55.0163 50.8226 55.2182 49.813 55.8239 49.3419C55.7903 49.4429 55.5547 51.8994 57.4392 52.808L57.7421 52.9763L57.6411 53.3128C57.6075 53.4138 56.9681 55.7694 59.2901 56.6443L59.6939 56.8126L59.5256 57.2164C59.492 57.3174 58.5834 59.4374 60.7034 60.6826H65.3137V56.9136C63.6648 56.7116 62.9918 55.3656 62.7898 54.3897C62.0159 54.2551 61.4438 53.9185 61.04 53.3801C60.0641 52.0677 60.9053 50.8562 60.9053 50.7889C60.9053 50.7889 60.9053 52.0677 61.6793 52.8753C62.0495 53.2455 62.5206 53.5484 63.1937 53.6157L63.5302 53.6493L63.5638 53.9858C63.5638 54.0532 63.7657 55.803 65.3137 56.0723V48.366C65.3137 47.1882 65.6502 45.9767 66.0541 44.8662H56.6989Z" fill="#FEFEFE"/>
<path d="M44.2804 48.3658L44.1794 53.279L44.7179 53.3463L46.0303 48.6687L45.3573 47.2217L44.2804 48.3658Z" fill="#FEFEFE"/>
<path d="M47.1732 66.5039C47.0049 66.5039 46.9039 66.3693 46.9039 66.201C46.9039 66.0328 47.0386 65.9318 47.2068 65.9318C47.3751 65.9318 47.476 66.0664 47.476 66.2347C47.4424 66.4029 47.3078 66.5376 47.1732 66.5039ZM58.884 70.845C58.9176 70.845 58.9849 70.845 59.0186 70.8786C59.8262 71.1142 60.0618 74.1765 61.5088 74.4457C61.6434 74.4794 61.778 74.4794 61.9127 74.4794C62.3165 74.4794 62.5857 74.3111 62.8549 73.9746C62.8549 73.9746 62.1146 72.7968 61.5761 72.0228C60.8694 70.9796 60.2974 69.7345 58.9513 69.7345C58.9176 69.7345 58.884 69.7345 58.8503 69.7345C58.4129 69.7681 58.1436 69.97 58.1436 69.97C57.6052 69.6335 57.1004 69.4989 56.6293 69.4989C55.788 69.4989 55.1486 69.9027 54.8121 69.9027L51.8171 69.5999C51.346 69.5662 50.9758 69.0614 50.8412 68.8932C50.8076 68.8259 50.7739 68.8259 50.7739 68.8259C50.7739 68.7586 50.7739 68.6576 50.7739 68.5903C50.6729 66.0664 48.7548 64.9896 48.0818 64.9559C48.0818 64.9559 48.1491 64.4848 47.9808 64.2829L47.3078 65.1242L45.1204 64.0137L46.6684 65.8645L45.356 67.3789C45.1877 67.5471 45.2214 67.7827 45.2887 67.8836L45.8271 68.3548L46.5338 67.9173C46.5674 67.8836 46.6347 67.8836 46.702 67.8836C46.904 67.8836 47.2068 67.9509 47.476 67.9509C47.7789 67.9509 48.0145 67.8836 48.0481 67.6144C47.9472 68.5567 47.1059 70.1719 47.6779 71.4507L48.0818 72.4266L45.4233 72.0228L44.1782 74.1765C43.808 74.8832 43.7407 75.6572 44.1109 76.0947L44.582 76.7004C44.582 76.7004 45.2214 75.9937 45.3896 75.5226L45.1877 75.287C45.0194 75.0851 45.0195 74.9169 45.1204 74.6813L45.8944 73.3352L49.024 74.1092L49.1923 73.7727C49.3942 73.4025 49.697 73.3016 50.0336 73.3016C50.1682 73.3016 50.3028 73.3016 50.471 73.3352C51.0431 73.4698 52.019 73.6044 52.9613 73.6044C54.0045 73.6044 55.0477 73.4025 55.6198 72.7631C56.7639 74.4794 59.0522 74.7822 58.884 75.6572L58.2783 78.6186C58.6821 78.5849 59.0522 78.5849 59.4224 78.5176L59.9945 75.4216C60.0618 75.0851 60.1291 74.6476 60.1291 74.6476C59.8935 74.4121 59.3551 73.941 59.0522 73.3352C58.6484 72.5276 58.8503 72.1238 58.4802 71.0806C58.5138 71.0806 58.6148 70.845 58.884 70.845Z" fill="#FEFEFE"/>
<path d="M42.9013 73.6721C42.9013 73.6721 43.9445 73.2346 44.0455 72.9317L43.9109 72.5616C43.8099 72.326 43.8099 72.0904 44.0118 71.9558L45.1223 71.1482L47.0068 71.5184C47.0068 71.5184 46.6703 71.0809 46.704 70.5088L44.9204 70.105L43.2378 71.1482C42.4975 71.7203 42.4638 72.6289 42.6994 73.1673L42.9013 73.6721Z" fill="#FEFEFE"/>
<path d="M56.1232 78.686C56.4597 78.686 56.8299 78.6524 57.2337 78.6524C57.2337 78.6524 58.2096 75.7583 58.2433 75.6573C57.7048 75.4218 56.5943 74.816 56.1569 74.5132C56.4597 74.9507 57.1328 75.4554 56.9981 75.8593L56.1232 78.686Z" fill="#FEFEFE"/>
<path d="M65.3117 61.4897H38.6595V71.7872C38.6595 75.9937 41.6209 78.6522 45.9956 78.6522C49.6636 78.6522 50.6059 78.7868 51.9856 80.2001C52.9279 79.2242 53.7019 78.8877 55.2835 78.7531L55.3172 78.5849L56.1584 75.9264C56.1248 75.8591 54.7451 74.2774 54.7451 74.2774C54.2066 74.4793 53.7355 74.4793 52.9615 74.4793C52.1875 74.4793 51.2789 74.3784 50.303 74.2101C50.2021 74.1765 50.1011 74.1765 50.0338 74.1765C49.8992 74.1765 49.8992 74.1765 49.8656 74.2438L49.6973 74.513L49.3944 75.0178L48.8224 74.8832L46.2648 74.2774L45.9283 74.8832L45.9956 74.9505L46.2985 75.287L46.1639 75.7581C45.962 76.3638 45.3562 77.0705 45.188 77.2388L44.5486 77.9455L43.9765 77.2051L43.539 76.6331C43.0679 76.0946 42.9669 75.287 43.2362 74.4457C43.2362 74.4457 43.2362 74.4457 43.2025 74.4457L42.4622 74.7486L42.1256 74.0082L41.8901 73.5034C41.4863 72.5948 41.6545 71.2824 42.6977 70.4748L44.7505 69.2633L46.7023 69.6671C46.7359 69.4652 46.8032 68.7922 46.8706 68.5903C46.8369 68.5903 46.8033 68.5903 46.7696 68.5903L45.6254 69.0277L44.5486 68.2538C44.5486 68.2538 44.1111 67.8163 44.5149 67.4125L45.5581 65.7635L42.8996 62.2974L47.0052 64.0473L47.2744 63.7108L47.8128 63.0377L48.4522 63.6435C48.6204 63.8117 48.7214 64.0473 48.7887 64.2492C49.9329 64.6867 51.952 66.0327 52.1202 68.2201L51.4808 68.4893C51.6155 68.6576 51.7501 68.7249 51.7837 68.7585L54.7114 69.0614C54.7787 69.0614 54.8797 69.0277 54.9806 68.9941C55.3508 68.8595 55.8892 68.6912 56.5286 68.6912C57.067 68.6912 57.5718 68.8258 58.0429 69.0614C58.2112 68.9941 58.4468 68.9268 58.716 68.9268H58.8506C60.4322 68.9268 61.2062 70.1383 61.8119 71.0805C61.9129 71.2488 62.0139 71.417 62.1148 71.5516C62.6532 72.3593 63.3936 73.5034 63.3936 73.5707L63.7301 74.0755L63.3263 74.5466C63.0234 74.9168 62.5523 75.3206 61.7783 75.3206C61.61 75.3206 61.4418 75.287 61.2399 75.2533C61.0716 75.2197 60.937 75.186 60.7687 75.1187C60.7351 75.287 60.7014 75.4552 60.7014 75.6235L60.2976 78.3829C63.3599 77.609 65.3117 75.2197 65.3117 71.7872V61.4897Z" fill="#FCEC3A"/>
<path d="M38.6597 60.6484H59.3892C58.346 59.5379 58.3797 58.1581 58.6489 57.2495C58.346 57.1149 58.1105 56.913 57.8749 56.7111C57.0673 57.3168 54.577 59.1677 53.9377 59.6388L53.803 59.7398L45.6593 58.2254H45.4911C45.2891 58.2254 45.0199 58.2254 44.6834 58.1918C44.5825 58.562 44.2796 58.8312 43.9094 58.8312C43.8758 58.8312 43.8085 58.8312 43.7748 58.8312C43.5729 58.7975 43.371 58.6966 43.27 58.4947C43.1354 58.3264 43.1018 58.0908 43.1354 57.8889L43.1691 57.7207C42.3278 57.1149 41.5538 55.7689 41.8903 54.3218L41.924 54.1872L42.0586 54.0863C42.0922 54.0863 42.2268 53.9853 42.4287 53.8507L41.823 53.7498C41.5874 53.7161 41.4528 53.4805 41.4865 53.2786C41.5201 53.0431 41.7221 52.8748 41.9576 52.9421L43.371 53.1777L43.5056 48.0626L45.592 45.7743L46.9044 48.601L45.5247 53.5142L46.7698 53.7161C47.0054 53.7498 47.14 53.9517 47.1063 54.1872C47.0727 54.3891 46.9044 54.5238 46.7025 54.5238C46.6689 54.5238 46.6689 54.5238 46.6352 54.5238L45.6257 54.3555C45.6257 54.3891 45.6593 54.3891 45.6593 54.4228C45.7603 54.6584 45.9958 54.8266 46.1304 54.8939L52.3224 54.9949C52.5916 54.7257 53.231 54.0863 53.904 53.3796C52.3897 52.7739 51.8176 51.4278 51.7166 50.5192C50.8753 50.149 50.2696 49.5769 49.9331 48.8702C49.5293 47.9617 49.6639 47.0531 49.7985 46.6156C48.9572 46.3127 48.1159 45.7406 47.2073 44.832H37.8521C38.2559 45.9425 38.5924 47.154 38.5924 48.3318L38.6597 60.6484Z" fill="#FCEC3A"/>
<path d="M47.2093 65.9658C47.041 65.9658 46.9401 66.0668 46.9064 66.235C46.9064 66.4033 47.0074 66.5379 47.1756 66.5379C47.3102 66.5379 47.4448 66.4369 47.4785 66.2687C47.4785 66.1004 47.3439 65.9658 47.2093 65.9658Z" fill="#252422"/>
<path d="M59.5571 87.5695L58.3457 84.137C59.7927 83.6995 62.2829 82.7236 63.3934 82.0506L62.6531 84.5745L65.177 85.4494C63.629 86.2234 61.7781 86.9637 59.5571 87.5695ZM51.9855 90.6654C49.0578 90.6654 45.6926 89.9588 44.7167 89.6222L46.231 85.4494C47.4761 85.8196 50.0673 86.2234 51.9518 86.1898H52.0864C53.9709 86.1898 56.5621 85.8196 57.8072 85.4494L59.2879 89.6222C58.2784 89.9924 54.9132 90.6654 51.9855 90.6654ZM38.794 85.4158L41.3178 84.5408L40.5775 82.0506C41.688 82.69 44.1783 83.6659 45.6253 84.137L44.4138 87.5695C42.1928 86.9637 40.3419 86.2234 38.794 85.4158ZM65.2779 84.6754L63.7299 84.0697L64.1674 82.4207L64.6385 80.6372C64.6385 80.6372 61.9127 82.1515 58.0764 83.2957C56.9996 83.6322 56.1583 83.7668 56.1583 83.7668V84.9783C56.1583 84.9783 54.1055 85.3485 52.0191 85.3485H51.8845C49.7981 85.3485 47.779 84.9783 47.779 84.9783V83.7668C47.779 83.7668 46.9377 83.6322 45.8608 83.2957C42.0245 82.1515 39.2987 80.6372 39.2987 80.6372L39.7699 82.4207L40.2073 84.0697L38.6594 84.6754L36.9431 85.3148C38.8949 86.2907 41.6207 87.7041 44.1109 88.4108L43.5389 90.0597C43.5389 90.0597 46.7021 91.5404 51.9182 91.5404H51.9855C57.2351 91.5404 60.3984 90.0597 60.3984 90.0597L59.8263 88.4108C62.3166 87.7041 65.0424 86.2907 66.9605 85.3148L65.2779 84.6754Z" fill="#252422"/>
<path d="M45.5918 18.2807L46.2985 18.348L46.6014 17.7086L47.4763 15.7904L49.0916 16.6654L49.731 17.0019L50.2358 16.4971L51.9857 14.7136L53.7356 16.4971L54.2403 17.0019L54.8797 16.6654L56.495 15.7904L57.37 17.7086L57.6728 18.348L58.3795 18.2807L59.0526 18.2134C58.7497 18.9201 58.5141 19.5931 58.3459 20.1652C56.596 19.1556 54.3076 18.5835 51.952 18.5835C49.63 18.5835 47.3417 19.1556 45.5582 20.1652C45.3899 19.5931 45.188 18.9201 44.8515 18.2134C44.9188 18.1797 45.5918 18.2807 45.5918 18.2807ZM51.9857 19.5594C55.1153 19.5594 57.6055 20.6363 58.9852 21.7468C58.9852 21.7468 59.3891 19.1893 60.8024 16.9683L58.2786 17.2711L56.9661 14.3771L54.4423 15.7231L51.9857 13.2329L49.5291 15.7231L47.0052 14.3771L45.6928 17.2711L43.1689 16.9683C44.5823 19.2229 44.9861 21.7468 44.9861 21.7468C46.3658 20.6027 48.8561 19.5594 51.9857 19.5594Z" fill="#252422"/>
<path d="M91.5923 62.2977C91.5923 62.2977 90.5154 64.2495 87.9916 64.2495H87.9579C84.9629 64.2158 83.7514 62.365 83.7514 62.365C83.7514 62.365 83.9197 64.8215 82.8428 68.1194C81.5304 72.0903 82.8428 74.9507 82.8428 74.9507C82.8428 74.9507 82.1361 75.1526 81.3285 75.1526C81.0256 75.1526 80.6891 75.119 80.3863 75.0517C77.896 74.446 77.2566 72.0903 77.2566 72.0903C77.2566 72.0903 77.4922 79.9985 68.5072 79.9985H68.4399C68.4399 79.9985 69.2475 78.888 69.4494 75.7247C69.8869 69.8357 73.7568 69.028 73.7568 69.028C73.7568 69.028 71.7041 68.7588 70.7955 67.9512C69.3821 66.6387 69.4831 65.1244 69.4831 65.1244C72.6463 65.0908 74.6991 63.9803 76.2807 62.0958C77.997 60.0766 78.2662 57.8893 78.2662 57.8893C78.2662 57.8893 76.5836 59.4709 73.2857 59.4709C72.9829 59.4709 72.68 59.4709 72.3771 59.4373C70.8291 59.3027 69.7523 58.2931 69.7523 58.2931C73.1848 56.0384 75.574 52.1012 73.454 46.1785C71.7377 41.4336 67.6659 37.9001 63.5267 35.208C62.147 34.333 61.4066 33.3571 61.4066 32.5158C61.4066 30.5304 64.1661 30.4631 65.2766 29.1506C66.589 27.6027 65.7477 25.0788 64.6372 23.5645C64.6372 23.5645 65.0074 23.4971 65.6131 23.4971C66.7909 23.4971 68.8437 23.8 70.5263 25.6172C72.7809 28.0065 71.8387 30.5977 71.8387 30.5977L72.4444 30.7323C72.8146 30.7996 73.1511 30.8332 73.5213 30.8332C73.5886 30.8332 73.6895 30.8332 73.7568 30.8332C77.0211 30.8332 78.4681 27.3335 78.4681 27.3335C78.4681 27.3335 81.9342 31.7082 76.8192 35.1407C75.9442 35.7128 75.5404 36.2848 75.6414 36.8569L75.7086 37.2271L76.0788 37.2944C79.7805 38.3376 81.6314 40.9288 83.9197 43.9238C87.3858 48.4668 92.299 48.6014 92.9047 48.6014H92.972C92.972 48.6014 91.8615 52.2358 88.5636 52.2358C88.4963 52.2358 88.4627 52.2358 88.3954 52.2358C86.982 52.1012 86.208 51.4954 86.208 51.4954C86.208 51.4954 85.6023 59.7401 91.5923 62.2977ZM88.6309 53.2453C92.6692 53.2453 94.0152 49.0052 94.0825 48.8369L94.52 47.3563L93.0057 47.3899C92.4672 47.3899 88.0252 47.2553 84.8619 43.1498L84.5591 42.7796C82.5063 40.0875 80.5209 37.4963 77.0211 36.3185C77.122 36.2175 77.2566 36.1166 77.4585 35.982C79.3094 34.7368 80.3863 33.1889 80.6555 31.439C81.0593 28.7805 79.4104 26.6604 79.3094 26.5595L78.1989 25.1124L77.4922 26.795C77.4585 26.896 76.2471 29.6218 73.7905 29.6218H73.5886C73.4203 29.6218 73.2521 29.6218 73.0838 29.5881C73.1848 28.3767 72.9492 26.4922 71.3003 24.7423C69.3148 22.6222 66.8582 22.3193 65.6131 22.3193C64.9401 22.3193 64.469 22.4203 64.4353 22.4203L62.7527 22.7568L63.7959 24.1702C64.6036 25.2807 65.3776 27.2998 64.469 28.343C64.1997 28.6795 63.594 28.9487 63.0556 29.218C61.9114 29.7564 60.3634 30.5304 60.3634 32.4485C60.3634 33.6936 61.3057 35.0061 62.9883 36.0829C68.036 39.3471 71.132 42.746 72.4781 46.4813C74.5645 52.2358 71.8387 55.5337 69.2139 57.2836L68.036 58.0575L69.0792 59.0334C69.2139 59.1681 70.4926 60.3122 72.3435 60.4805C72.68 60.5141 73.0502 60.5141 73.353 60.5141C74.5308 60.5141 75.574 60.3122 76.3817 60.0766C76.1461 60.4805 75.8769 60.9179 75.5067 61.3218C73.9924 63.1053 72.1416 63.913 69.4831 63.9803H68.5072L68.4399 64.9898C68.4399 65.1917 68.3726 67.0762 70.0888 68.6915C70.358 68.9271 70.6609 69.129 70.9974 69.2972C69.8196 70.3741 68.6081 72.2923 68.3726 75.5565C68.1707 78.2823 67.5313 79.2918 67.5313 79.2918L66.4544 81.0081L68.4399 81.0417C71.7041 81.0417 74.1943 80.1331 75.9106 78.2823C76.9201 77.2054 77.5259 75.9603 77.8624 74.8834C78.4345 75.3882 79.1748 75.8257 80.117 76.0612C80.4872 76.1622 80.891 76.1959 81.2949 76.1959C82.2035 76.1959 82.9774 75.9939 83.0784 75.9603L84.3235 75.6238L83.7514 74.4123C83.7178 74.3114 82.6746 71.8884 83.7851 68.4223C84.2562 66.908 84.5254 65.5955 84.6264 64.5523C85.434 64.9898 86.4772 65.3263 87.8569 65.3263C90.9866 65.3263 92.3663 62.937 92.3999 62.8361L93.0057 61.7256L91.8615 61.2545C88.1598 59.6728 87.3185 55.3991 87.1503 53.1107C87.4868 53.178 87.857 53.2453 88.2944 53.2453H88.6309Z" fill="#252422"/>
<path d="M84.1213 35.1739C84.8616 35.1739 85.7366 35.4432 86.5779 36.3181C89.1691 39.0439 91.592 39.1785 91.592 39.1785C91.1545 40.1881 89.8758 41.063 88.5633 41.063C88.2605 41.063 87.9576 41.0294 87.6547 40.8947C85.8712 40.289 85.2318 37.4959 82.0685 35.7797C82.0685 35.8133 82.9435 35.1739 84.1213 35.1739ZM81.5301 36.7892C83.0444 37.6305 83.9194 38.7074 84.6934 39.7169C85.4337 40.6592 86.1741 41.6014 87.2846 41.9716C87.6884 42.1062 88.0922 42.1735 88.5297 42.1735C90.2123 42.1735 91.8949 41.0967 92.5679 39.6496L93.2073 38.169L91.6593 38.068C91.592 38.068 89.5729 37.8661 87.3519 35.5105C86.4433 34.5346 85.3328 34.0298 84.1213 34.0298C82.6406 34.0298 81.5638 34.7701 81.4628 34.8711L80.0158 35.9143L81.5301 36.7892Z" fill="#252422"/>
<path d="M82.2364 51.4609V51.5282C81.3278 43.9902 76.0109 38.5722 70.0881 35.2407C69.5497 34.9379 69.0449 34.6686 68.5402 34.4331C70.3237 34.7359 73.2514 34.7696 75.4724 32.7505C75.4724 32.7505 72.0399 35.3417 65.0404 32.986C66.9922 34.2985 70.7612 36.1157 74.1937 39.077C82.8085 46.8506 76.6502 54.4559 76.6502 54.4559C79.7462 51.1244 79.8808 47.5909 78.9722 44.6632C80.5875 47.4563 81.6307 50.8552 81.4961 55.028C81.2605 61.018 78.0636 66.2004 74.6984 70.3395C73.0832 72.3587 72.7466 74.8489 72.7466 74.8489C72.7466 74.8489 73.386 72.6615 75.2705 70.4068C78.8713 66.0658 81.9672 61.5564 82.3711 55.0616C82.7412 56.2394 84.2892 59.5037 86.7121 60.7488C86.6785 60.7488 83.6162 58.8643 82.2364 51.4609Z" fill="#252422"/>
<path d="M35.3951 79.9644C26.41 79.9644 26.6456 72.0562 26.6456 72.0562C26.6456 72.0562 26.0062 74.4119 23.516 75.0176C23.2131 75.0849 22.9103 75.1185 22.5737 75.1185C21.7661 75.1185 21.0594 74.9166 21.0594 74.9166C21.0594 74.9166 22.3718 72.0899 21.0594 68.0853C19.9826 64.7874 20.1508 62.3309 20.1508 62.3309C20.1508 62.3309 18.9393 64.2154 15.9443 64.2154H15.978C13.4878 64.2154 12.3773 62.2636 12.3773 62.2636C18.3673 59.706 17.7615 51.4613 17.7615 51.4613C17.7615 51.4613 16.9875 52.0671 15.4732 52.1007C15.4059 52.1007 15.3723 52.1007 15.305 52.1007C12.0071 52.1007 10.8966 48.4663 10.8966 48.4663H10.9639C11.5696 48.4663 16.4828 48.3317 19.9489 43.7887C22.2372 40.7937 24.0881 38.2025 27.7898 37.1593L28.1599 37.092L28.2272 36.7219C28.3282 36.1498 27.958 35.6113 27.0831 35.0056C22.0017 31.5731 25.4341 27.1984 25.4341 27.1984C25.4341 27.1984 26.8812 30.6982 30.1454 30.6982C30.2127 30.6982 30.3137 30.6982 30.381 30.6982C30.7511 30.6645 31.1213 30.6645 31.4578 30.5972L32.0635 30.4626C32.0635 30.4626 31.1213 27.8714 33.376 25.4822C35.0586 23.6986 37.1113 23.3621 38.2891 23.3621C38.8949 23.3621 39.265 23.4294 39.265 23.4294C38.1545 24.9437 37.3132 27.4676 38.6256 29.0156C39.7362 30.3617 42.4956 30.3953 42.4956 32.3808C42.4956 33.2221 41.7216 34.198 40.3755 35.0729C36.2364 37.7314 32.1645 41.2985 30.4483 46.0434C28.3282 51.9661 30.7175 55.9034 34.15 58.158C34.15 58.158 33.0731 59.1676 31.5251 59.3022C31.2223 59.3359 30.8857 59.3359 30.6165 59.3359C27.3523 59.3359 25.6361 57.7542 25.6361 57.7542C25.6361 57.7542 25.9053 59.9416 27.6215 61.9607C29.2031 63.8452 31.2896 64.9557 34.4192 64.9894C34.4192 64.9894 34.5201 66.5037 33.1404 67.8161C32.2318 68.6238 30.179 68.893 30.179 68.893C30.179 68.893 34.049 69.7006 34.4865 75.5897C34.722 78.7866 35.496 79.8635 35.496 79.8635L35.3951 79.9644ZM36.371 79.325C36.371 79.325 35.7316 78.3155 35.5297 75.5897C35.2941 72.3255 34.0827 70.441 32.9048 69.3304C33.2414 69.1622 33.5779 68.9603 33.8134 68.7247C35.5633 67.1094 35.4624 65.2249 35.4624 65.023L35.3951 64.0135H34.3855C31.727 63.9798 29.8762 63.1385 28.3955 61.355C28.059 60.9175 27.7561 60.5137 27.5206 60.1099C28.3619 60.3791 29.3714 60.5473 30.5492 60.5473C30.8857 60.5473 31.1886 60.5137 31.5588 60.5137C33.4096 60.3454 34.6884 59.2012 34.823 59.0666L35.8662 58.0907L34.6884 57.3168C32.0635 55.5669 29.3714 52.3026 31.4242 46.5145C32.7702 42.7792 35.8662 39.3803 40.914 36.1161C42.6302 35.0056 43.5388 33.6932 43.5388 32.4817C43.5388 30.5636 41.9908 29.7896 40.8467 29.2512C40.2746 28.9819 39.7025 28.7127 39.4333 28.3762C38.5583 27.333 39.2987 25.3139 40.1063 24.2034L41.1495 22.79L39.4333 22.4535C39.3996 22.4535 38.9285 22.3525 38.2555 22.3525C36.9767 22.3525 34.5538 22.6554 32.5683 24.7755C30.9194 26.5254 30.6838 28.4099 30.7848 29.6213C30.6165 29.6213 30.4483 29.655 30.28 29.655H30.1117C27.6215 29.655 26.4437 26.9292 26.3764 26.8282L25.6697 25.1456L24.5255 26.5927C24.4582 26.6936 22.8093 28.8137 23.2131 31.4722C23.4823 33.2557 24.5592 34.77 26.41 36.0152C26.612 36.1498 26.7466 36.2507 26.8475 36.3517C23.3477 37.5295 21.3959 40.087 19.3095 42.8128L19.0067 43.183C15.8434 47.3222 11.3677 47.4231 10.8629 47.4231L9.34859 47.3895L9.81971 48.8702C9.88702 49.0384 11.2331 53.2785 15.2713 53.2785H15.4732C15.9107 53.2785 16.2809 53.2112 16.6174 53.1439C16.4491 55.4659 15.6415 59.706 11.9061 61.2877L10.8293 61.7588L11.435 62.8693C11.5023 62.9703 12.882 65.3595 16.0116 65.3595C17.3914 65.3595 18.4346 64.9894 19.2422 64.5855C19.3768 65.6287 19.6124 66.9748 20.0835 68.4555C21.2277 71.9216 20.1508 74.3446 20.1172 74.4455L19.5451 75.657L20.8238 75.9935C20.8912 76.0271 21.6988 76.2291 22.6074 76.2291C23.0449 76.2291 23.4487 76.1954 23.7852 76.0945C24.7275 75.8589 25.4678 75.4214 26.0399 74.9166C26.3764 75.9935 26.9821 77.2386 27.9917 78.3155C29.7416 80.1327 32.2318 81.0749 35.4624 81.0749L37.4478 81.0413L36.371 79.325Z" fill="#252422"/>
<path d="M17.3897 36.3177C18.231 35.4427 19.1059 35.1735 19.8463 35.1735C21.0241 35.1735 21.899 35.8129 21.899 35.8129C18.7694 37.5291 18.0964 40.2886 16.3128 40.928C16.01 41.0289 15.7071 41.0962 15.4042 41.0962C14.0918 41.0962 12.8131 40.2213 12.3756 39.2117C12.3756 39.1781 14.7985 39.0435 17.3897 36.3177ZM15.4042 42.1731C15.8417 42.1731 16.2455 42.1058 16.6494 41.9712C17.7935 41.601 18.5002 40.6587 19.2406 39.7165C20.0145 38.7406 20.8895 37.6301 22.4038 36.7888L23.9518 35.9475L22.5048 34.9043C22.3702 34.837 21.2933 34.063 19.8463 34.063C18.6348 34.063 17.5243 34.5678 16.6157 35.5437C14.361 37.8993 12.3756 38.0676 12.3083 38.1012L10.7603 38.2022L11.3997 39.6828C12.0391 41.0962 13.7217 42.1731 15.4042 42.1731Z" fill="#252422"/>
<path d="M22.4712 55.028C22.303 50.8552 23.3462 47.4563 24.9615 44.6632C24.0529 47.5573 24.1875 51.1244 27.2835 54.4559C27.2835 54.4559 21.1252 46.8506 29.74 39.077C33.1725 36.1157 36.9415 34.2985 38.8933 32.986C31.8937 35.3417 28.4613 32.7505 28.4613 32.7505C30.7159 34.7359 33.61 34.7023 35.3935 34.4331C34.9224 34.6686 34.384 34.9379 33.8455 35.2407C27.9228 38.5386 22.6059 43.9902 21.6973 51.5282V51.4609C20.3175 58.8643 17.2552 60.7488 17.2552 60.7488C19.6781 59.5037 21.2261 56.2394 21.5963 55.0616C22.0001 61.5564 25.0961 66.0658 28.6968 70.4068C30.5813 72.6615 31.2207 74.8489 31.2207 74.8489C31.2207 74.8489 30.8505 72.3587 29.2353 70.3395C25.9037 66.2004 22.7068 61.018 22.4712 55.028Z" fill="#252422"/>
<path d="M49.9685 39.8184V41.299C50.4733 40.6597 51.4492 40.7943 51.4492 40.7943V42.948C51.4492 42.948 51.4155 43.9912 51.0454 44.4623H53.1318C52.7616 43.9912 52.728 42.948 52.728 42.948V40.7943C52.728 40.7943 53.7039 40.6597 54.2086 41.299V39.8184H49.9685Z" fill="#252422"/>
<path d="M49.0579 30.9677C49.731 31.5061 50.1011 31.6071 50.1348 31.6071L50.404 31.7417V30.3283L47.9474 29.2515C47.9474 29.2515 47.9474 30.0591 49.0579 30.9677Z" fill="#252422"/>
<path d="M54.9118 30.9673C56.0223 30.0923 56.056 29.2847 56.056 29.2847L53.5994 30.3615V31.7749L53.8686 31.6403C53.8686 31.6066 54.2388 31.5057 54.9118 30.9673Z" fill="#252422"/>
<path d="M51.9864 27.198L46.0637 24.7751C46.5685 23.5299 48.8905 22.4867 51.9864 22.4867C55.0824 22.4867 57.4044 23.5299 57.9092 24.7751L51.9864 27.198ZM56.3948 34.736L52.4239 36.8897V28.1402L57.8419 26.2557L56.3948 34.736ZM58.8851 37.058L60.7023 38.1348H60.7359L61.207 38.404C60.1638 38.7069 59.3898 39.2117 58.7168 39.9184C58.6831 39.952 58.6831 39.952 58.6495 39.9857C58.5149 40.1539 58.3466 40.3222 58.212 40.5241C58.1784 40.5578 58.1447 40.5914 58.1111 40.625C57.9765 40.827 57.8419 40.9952 57.7073 41.1971C57.6736 41.2308 57.6736 41.2644 57.6399 41.2981C57.5053 41.5337 57.3371 41.7692 57.2025 42.0384C55.89 44.3267 53.8373 45.7065 51.9864 45.7065C50.1356 45.7065 48.0828 44.3267 46.7704 42.0384C46.6358 41.8029 46.5012 41.5337 46.3329 41.2981C46.2993 41.2644 46.2656 41.1971 46.232 41.1635C46.0974 40.9616 45.9628 40.7933 45.8618 40.625C45.8282 40.5914 45.7945 40.5241 45.7609 40.4904C45.6263 40.3222 45.4916 40.1203 45.3234 39.9857C45.2897 39.952 45.2561 39.9184 45.2561 39.9184C44.583 39.2117 43.8091 38.7069 42.7659 38.404L43.237 38.1348H43.2706L45.0878 37.058L46.9723 35.9475L51.9864 38.7406L57.0006 35.9475L58.8851 37.058ZM66.0529 44.8652C65.6491 45.9757 65.3126 47.1535 65.3126 48.365V56.0712C63.7646 55.802 63.5627 54.0858 63.5627 53.9848L63.529 53.6483L63.1925 53.6146C62.5195 53.5473 62.0483 53.2445 61.6782 52.8743C60.9042 52.1003 60.9042 50.8215 60.9042 50.7879C60.9042 50.8552 60.0629 52.0667 61.0388 53.3791C61.4426 53.9175 62.0483 54.254 62.7887 54.3886C62.9569 55.3645 63.6636 56.7106 65.3126 56.9125V60.6815H60.7023C58.5822 59.4701 59.4908 57.3163 59.5244 57.2154L59.6927 56.8116L59.2889 56.6433C57.0006 55.7684 57.6063 53.4127 57.6399 53.3118L57.7409 52.9753L57.438 52.807C55.5535 51.8984 55.7891 49.4755 55.8227 49.3409C55.2507 49.8456 55.0151 50.8215 55.4189 51.7974C55.217 52.0667 54.9142 52.3695 54.5776 52.706C52.5922 52.2013 52.5585 50.3168 52.5585 50.2495V49.9466L52.2893 49.8456C51.5153 49.5428 50.9769 49.1053 50.7413 48.5332C50.4385 47.8938 50.5394 47.1872 50.6404 46.8506C50.8759 46.9179 51.0778 46.9516 51.3134 46.9516C51.549 46.9852 51.7509 46.9852 51.9864 46.9852H52.0201C52.2557 46.9852 52.4576 46.9852 52.6931 46.9516C53.9046 46.817 55.2843 46.2786 56.7313 44.8315L66.0529 44.8652ZM60.2984 78.3824L60.8032 75.6229C60.8369 75.4547 60.8705 75.2864 60.8705 75.1181C61.0051 75.1854 61.1734 75.2191 61.3416 75.2527C61.5436 75.2864 61.7118 75.32 61.8801 75.32C62.6541 75.32 63.1252 74.8826 63.4281 74.5461L63.8319 74.0749L63.4954 73.5702C63.4617 73.5029 62.755 72.3587 62.2166 71.551C62.1156 71.3828 62.0147 71.2482 61.9137 71.0799C61.2743 70.104 60.5003 68.9262 58.9524 68.9262H58.8178C58.5485 68.9262 58.3466 68.9935 58.1447 69.0608C57.6399 68.8253 57.1352 68.6906 56.6304 68.6906C55.991 68.6906 55.4526 68.8589 55.0824 68.9935C54.9815 69.0272 54.8805 69.0608 54.8132 69.0608L51.8855 68.7579C51.8518 68.7579 51.7172 68.6906 51.5826 68.4887L52.222 68.2195C52.0537 66.0322 50.001 64.7197 48.8905 64.2486C48.8568 64.0467 48.7559 63.8111 48.554 63.6429L47.9146 63.0371L47.3761 63.7102L47.1069 64.0467L43.0014 62.2968L45.6599 65.7629L44.6167 67.4119C44.2465 67.8494 44.6504 68.2532 44.6504 68.2532L45.7272 69.0272L46.8714 68.5897C46.905 68.5897 46.9387 68.5897 46.9723 68.5897C46.905 68.758 46.8377 69.4646 46.8041 69.6665L44.8523 69.2627L42.7995 70.4742C41.7563 71.2818 41.588 72.5943 41.9919 73.5028L42.2274 74.0076L42.5639 74.748L43.2706 74.4451H43.3043C43.0351 75.2864 43.136 76.094 43.6071 76.6325L44.0446 77.2046L44.6167 77.9449L45.2561 77.2382C45.458 77.0363 46.0637 76.3296 46.232 75.7575L46.3666 75.2864L46.0637 74.9499L45.9964 74.8826L46.3329 74.2768L48.8905 74.8826L49.4626 75.0172L49.7654 74.5124L49.9337 74.2432C49.9673 74.1759 49.9673 74.1759 50.1019 74.1759C50.2029 74.1759 50.2702 74.1759 50.3712 74.2095C51.3471 74.4114 52.222 74.4788 53.0296 74.4788C53.8036 74.4788 54.2411 74.4451 54.8132 74.2768C54.8132 74.2768 56.1929 75.8921 56.2266 75.9258L55.3853 78.5843L55.3516 78.7525C53.77 78.8871 52.996 79.2573 52.0537 80.1996C50.7077 78.8198 49.7318 78.6516 46.0637 78.6516C41.689 78.6516 38.7276 76.0267 38.7276 71.7866V61.4892H65.3799V71.7866C65.3126 75.2191 63.3607 77.6084 60.2984 78.3824ZM43.8764 72.5606L44.011 72.9308C43.91 73.2336 42.8668 73.6711 42.8668 73.6711L42.6312 73.1663C42.3957 72.6279 42.4293 71.7193 43.1697 71.1472L44.8523 70.104L46.6358 70.5078C46.6022 71.0799 46.9387 71.5174 46.9387 71.5174L45.0542 71.1472L43.9437 71.9549C43.7754 72.0558 43.7754 72.325 43.8764 72.5606ZM59.9956 75.4547L59.4235 78.5506C59.0533 78.6179 58.6832 78.6179 58.2793 78.6516L58.8851 75.6902C59.0533 74.8153 56.765 74.5461 55.6208 72.7962C55.0824 73.4356 54.0056 73.6375 52.9623 73.6375C52.0201 73.6375 51.0442 73.4692 50.4721 73.3682C50.3375 73.3346 50.1692 73.3346 50.0346 73.3346C49.6981 73.3346 49.3953 73.4355 49.1933 73.8057L49.0251 74.1086L45.8955 73.3346L45.1215 74.647C45.0205 74.8489 44.9869 75.0508 45.1888 75.2527L45.3907 75.4883C45.2561 75.9594 44.583 76.6661 44.583 76.6661L44.1119 76.0604C43.7418 75.6229 43.8091 74.8489 44.1792 74.1422L45.4243 71.9885L48.0828 72.3923L47.679 71.4164C47.1406 70.1377 47.9819 68.5224 48.0492 67.5801C48.0155 67.8493 47.78 67.9167 47.4771 67.9167C47.2079 67.9167 46.905 67.8493 46.7031 67.8493C46.6358 67.8493 46.5685 67.8493 46.5349 67.883L45.8282 68.3541L45.2561 67.8493C45.1888 67.7484 45.1551 67.5128 45.3234 67.3446L46.6358 65.8302L45.0878 63.9794L47.2752 65.0899L47.9482 64.2486C48.1165 64.4169 48.0492 64.9216 48.0492 64.9216C48.7222 64.9216 50.6404 66.0322 50.7413 68.556C50.7413 68.6233 50.7413 68.7243 50.7413 68.7916C50.7413 68.7916 50.775 68.8253 50.8086 68.8589C50.9432 69.0608 51.3134 69.5319 51.7845 69.5656L54.7795 69.8685C55.1161 69.8685 55.7554 69.4646 56.5967 69.4646C57.0679 69.4646 57.5726 69.5992 58.1111 69.9358C58.1111 69.9358 58.3803 69.7002 58.8178 69.7002C58.8514 69.7002 58.8851 69.7002 58.9187 69.7002C60.2648 69.7002 60.8369 70.9453 61.5436 71.9885C62.082 72.7962 62.8223 73.9403 62.8223 73.9403C62.5531 74.2768 62.3175 74.4451 61.8801 74.4451C61.7791 74.4451 61.6445 74.4451 61.4762 74.4115C60.0292 74.1422 59.8273 71.0799 58.986 70.8444C58.9524 70.8444 58.8851 70.8107 58.8514 70.8107C58.5822 70.8107 58.4812 71.0463 58.4812 71.0463C58.8514 72.0895 58.6495 72.4933 59.0533 73.3009C59.3562 73.9067 59.8946 74.3778 60.1302 74.6134C60.1302 74.6807 60.0629 75.1181 59.9956 75.4547ZM57.2361 78.6516C56.8323 78.6516 56.4621 78.6516 56.1256 78.6852L57.0006 75.8585C57.1352 75.4547 56.4285 74.9835 56.1593 74.5124C56.5967 74.7816 57.7073 75.421 58.2457 75.6566C58.212 75.7575 57.2361 78.6516 57.2361 78.6516ZM44.1792 53.2781L44.3138 48.365L45.3907 47.1872L46.0637 48.6342L44.7513 53.3454C44.7177 53.3454 44.1792 53.2781 44.1792 53.2781ZM44.9532 54.7925C45.1215 55.1626 45.458 55.4318 45.6599 55.5664C45.6599 55.9366 45.6263 56.475 45.5253 56.9462C45.4916 57.0471 45.4916 57.1481 45.458 57.249C45.458 57.3163 45.4243 57.35 45.4243 57.4173C45.0878 57.4173 44.4484 57.3836 43.9437 57.1817C43.3716 56.9462 42.4966 55.8693 42.6985 54.6578C42.9341 54.4896 43.5398 54.1531 44.0783 54.1531C44.4484 54.1531 44.7513 54.355 44.9532 54.7925ZM57.3034 56.1049C56.4958 56.7443 54.3757 58.3259 53.6017 58.8643L46.1983 57.4846C46.232 57.4173 46.232 57.35 46.2656 57.2827C46.3666 56.8789 46.4676 56.3404 46.4676 55.701L52.6931 55.8357L52.8277 55.701C52.9287 55.6001 54.8805 53.6483 55.8901 52.5378C56.1256 52.8407 56.4285 53.1435 56.8323 53.4127C56.664 54.1531 56.7313 55.1963 57.3034 56.1049ZM47.2752 44.8652C48.1501 45.7738 49.0251 46.3459 49.8664 46.6487C49.7654 47.0862 49.6308 47.9948 50.001 48.9034C50.3375 49.6437 50.9096 50.1822 51.7845 50.5523C51.8855 51.4609 52.4239 52.807 53.9719 53.4127C53.2989 54.1194 52.6595 54.7588 52.3903 55.028L46.1983 54.9271C46.0637 54.8598 45.8282 54.6915 45.7272 54.4559C45.7272 54.4223 45.6936 54.4223 45.6936 54.3886L46.7031 54.5569C46.7368 54.5569 46.7368 54.5569 46.7704 54.5569C46.9723 54.5569 47.1406 54.4223 47.1742 54.2204C47.2079 53.9848 47.0733 53.7829 46.8377 53.7492L45.5926 53.5473L46.9723 48.6342L45.6599 45.8074L43.5735 48.0958L43.4389 53.2108L42.0255 52.9753C41.8236 52.9416 41.588 53.1099 41.5544 53.3118C41.5207 53.5473 41.6553 53.7492 41.8909 53.7829L42.4966 53.8839C42.2947 54.0185 42.1601 54.1194 42.1265 54.1194L41.9919 54.2204L41.9582 54.355C41.6217 55.802 42.3957 57.1481 43.237 57.7538L43.2033 57.9221C43.1697 58.1576 43.2033 58.3595 43.3379 58.5278C43.4725 58.6961 43.6408 58.8307 43.8427 58.8643C43.8764 58.8643 43.9437 58.8643 43.9773 58.8643C44.3475 58.8643 44.6504 58.5951 44.7513 58.2249C45.0542 58.2586 45.357 58.2586 45.559 58.2586H45.7272L53.8709 59.7729L54.0056 59.672C54.6449 59.2008 57.1352 57.35 57.9428 56.7443C58.1784 56.9462 58.4139 57.1144 58.7168 57.2827C58.4476 58.1913 58.4476 59.571 59.4908 60.6815H38.7613V48.365C38.7613 47.1872 38.4248 45.9757 38.021 44.8652H47.2752ZM46.131 26.2894L51.549 28.1739V36.9234L47.5781 34.7696L46.131 26.2894ZM59.3562 25.2125C59.3562 23.0925 55.8564 21.1743 52.0201 21.1743H51.9864C48.1165 21.1743 44.6504 23.0925 44.6504 25.2125L44.7177 25.751L46.2656 34.8369L44.7177 35.7455L40.7131 38.1348C40.7131 38.1348 39.8045 38.6059 39.4007 38.9088C37.8863 39.9857 37.5498 41.5673 38.4248 42.2403C38.6267 40.9616 39.6362 39.5818 41.4871 39.5818C42.8332 39.5818 43.8427 40.2885 44.684 41.3654C44.8859 41.6346 45.0878 41.9375 45.2897 42.2403C45.5253 42.6442 45.7609 42.9807 45.9964 43.3172H35.699C36.4393 44.8988 37.1797 46.5478 37.1797 48.3313V71.7866C37.1797 77.4738 41.4198 80.1659 45.9964 80.1659C49.5299 80.1659 50.0346 79.9977 51.9864 82.0168C53.9382 79.9977 54.4094 80.1659 57.9765 80.1659C62.5531 80.1659 66.7932 77.4738 66.7932 71.7866V48.3313C66.7932 46.5478 67.4999 44.8652 68.2739 43.3172H57.9765C58.212 42.9807 58.4476 42.6442 58.6831 42.2403C58.8851 41.9375 59.087 41.6346 59.2889 41.3654C60.1302 40.2885 61.1397 39.5818 62.4858 39.5818C64.3367 39.5818 65.3462 40.9279 65.5481 42.2403C66.4231 41.601 66.1202 39.9857 64.5722 38.9088C64.1684 38.6059 63.2598 38.1348 63.2598 38.1348L59.2552 35.7455L57.7073 34.8369L59.2552 25.751L59.3562 25.2125Z" fill="#252422"/>
</g>
<defs>
<clipPath id="clip0_669_435">
<rect x="-0.000244141" width="104" height="104" rx="52" fill="white"/>
</clipPath>
</defs>
</svg>
