<svg width="223" height="96" viewBox="0 0 223 96" fill="none" xmlns="http://www.w3.org/2000/svg">
<g clip-path="url(#clip0_669_81)">
<path d="M223 0H0V96H223V0Z" fill="#E1372F"/>
<path d="M101.03 58.9897H95.8752V37.3402H101.03V58.9897Z" fill="#F1A4A0"/>
<path d="M111.338 64.1444H106.183V43.5259H111.338V64.1444Z" fill="#F1A4A0"/>
<path d="M121.647 47.6495H116.492V36.3093H121.647V47.6495Z" fill="#F1A4A0"/>
<path d="M49.4825 47.6495H44.3279V32.1855H49.4825V47.6495Z" fill="#F1A4A0"/>
<path d="M59.7911 58.9897H54.6365V38.3711H59.7911V58.9897Z" fill="#F1A4A0"/>
<path d="M39.1742 58.9897H34.0195V47.6495H39.1742V58.9897Z" fill="#F1A4A0"/>
<path fill-rule="evenodd" clip-rule="evenodd" d="M64.949 37.3402H70.1036V26H64.949V37.3402Z" fill="white"/>
<path fill-rule="evenodd" clip-rule="evenodd" d="M64.949 69.299H70.1036V42.4949H64.949V69.299Z" fill="white"/>
<path fill-rule="evenodd" clip-rule="evenodd" d="M75.2568 69.299H80.4115V26H75.2568V69.299Z" fill="white"/>
<path fill-rule="evenodd" clip-rule="evenodd" d="M85.5662 37.3402H90.7208V26H85.5662V37.3402Z" fill="white"/>
<path fill-rule="evenodd" clip-rule="evenodd" d="M85.5662 69.299H90.7208V42.4948H85.5662V69.299Z" fill="white"/>
<path d="M144.099 61.5C143.695 59.2628 141.905 57.9418 139.71 57.9418C136.919 57.9418 134.895 60.0938 134.895 63.5455C134.895 66.9972 136.919 69.1491 139.71 69.1491C141.905 69.1491 143.695 67.8281 144.099 65.5909H142.778C142.459 67.1037 141.159 67.9134 139.71 67.9134C137.729 67.9134 136.173 66.3793 136.173 63.5455C136.173 60.7116 137.729 59.1776 139.71 59.1776C141.159 59.1776 142.459 59.9872 142.778 61.5H144.099ZM147.182 69L148.279 65.9105H152.689L153.787 69H155.172L151.166 58.0909H149.802L145.797 69H147.182ZM148.694 64.7386L150.441 59.8168H150.527L152.274 64.7386H148.694ZM157.371 69H158.692V65.0156H161.078C163.619 65.0156 164.764 63.4709 164.764 61.5426C164.764 59.6143 163.619 58.0909 161.057 58.0909H157.371V69ZM158.692 63.8438V59.2628H161.014C162.788 59.2628 163.465 60.2322 163.465 61.5426C163.465 62.853 162.788 63.8438 161.036 63.8438H158.692ZM168.713 58.0909H167.392V69H168.713V58.0909ZM171.265 59.2628H174.696V69H176.017V59.2628H179.447V58.0909H171.265V59.2628ZM181.159 69L182.256 65.9105H186.667L187.764 69H189.149L185.143 58.0909H183.78L179.774 69H181.159ZM182.672 64.7386L184.419 59.8168H184.504L186.251 64.7386H182.672ZM191.348 69H197.74V67.8281H192.669V58.0909H191.348V69Z" fill="white"/>
<path d="M137.665 40.0909H134.703V51H137.665V40.0909ZM139.27 42.4773H142.551V51H145.47V42.4773H148.752V40.0909H139.27V42.4773ZM153.328 40.0909H150.366V51H153.328V40.0909Z" fill="white"/>
</g>
<defs>
<clipPath id="clip0_669_81">
<rect width="223" height="96" fill="white"/>
</clipPath>
</defs>
</svg>
