<svg width="169" height="72" viewBox="0 0 169 72" fill="none" xmlns="http://www.w3.org/2000/svg">
<g clip-path="url(#clip0_669_1432)">
<path d="M169 0H0V72H169V0Z" fill="white"/>
<path d="M72.5217 43.8261H68.1738V25.5652H72.5217V43.8261Z" fill="#D0D0D3"/>
<path d="M81.217 48.1741H76.8691V30.7828H81.217V48.1741Z" fill="#D0D0D3"/>
<path d="M89.9133 34.2609H85.5654V24.6957H89.9133V34.2609Z" fill="#D0D0D3"/>
<path d="M29.0431 34.2611H24.6953V21.2176H29.0431V34.2611Z" fill="#D0D0D3"/>
<path d="M37.7389 43.826H33.3911V26.4347H37.7389V43.826Z" fill="#D0D0D3"/>
<path d="M20.3478 43.8261H16V34.2609H20.3478V43.8261Z" fill="#D0D0D3"/>
<path fill-rule="evenodd" clip-rule="evenodd" d="M42.0864 25.5652H46.4343V16H42.0864V25.5652Z" fill="#E1372F"/>
<path fill-rule="evenodd" clip-rule="evenodd" d="M42.0864 52.522H46.4343V29.9133H42.0864V52.522Z" fill="#E1372F"/>
<path fill-rule="evenodd" clip-rule="evenodd" d="M50.7827 52.5217H55.1305V16H50.7827V52.5217Z" fill="#E1372F"/>
<path fill-rule="evenodd" clip-rule="evenodd" d="M59.478 25.5652H63.8259V16H59.478V25.5652Z" fill="#E1372F"/>
<path fill-rule="evenodd" clip-rule="evenodd" d="M59.478 52.522H63.8259V29.9133H59.478V52.522Z" fill="#E1372F"/>
<path d="M103.178 29.9485H101.173V39.4347H103.178V29.9485ZM104.598 31.6021H107.502V39.4347H109.484V31.6021H112.388V29.9485H104.598V31.6021ZM115.807 29.9485H113.802V39.4347H115.807V29.9485Z" fill="#E1372F"/>
<path d="M109.13 46.8263C108.778 44.8809 107.222 43.7321 105.314 43.7321C102.886 43.7321 101.126 45.6034 101.126 48.6049C101.126 51.6064 102.886 53.4777 105.314 53.4777C107.222 53.4777 108.778 52.329 109.13 50.3836H107.982C107.704 51.699 106.573 52.4031 105.314 52.4031C103.59 52.4031 102.238 51.0691 102.238 48.6049C102.238 46.1407 103.59 44.8067 105.314 44.8067C106.573 44.8067 107.704 45.5108 107.982 46.8263H109.13ZM111.506 53.348L112.46 50.6615H116.295L117.25 53.348H118.454L114.971 43.8618H113.785L110.302 53.348H111.506ZM112.821 49.6425L114.341 45.3626H114.415L115.934 49.6425H112.821ZM120.062 53.348H121.211V49.8833H123.286C125.495 49.8833 126.491 48.5401 126.491 46.8633C126.491 45.1866 125.495 43.8618 123.267 43.8618H120.062V53.348ZM121.211 48.8643V44.8809H123.23C124.773 44.8809 125.361 45.7239 125.361 46.8633C125.361 48.0028 124.773 48.8643 123.249 48.8643H121.211ZM129.621 43.8618H128.472V53.348H129.621V43.8618ZM131.535 44.8809H134.518V53.348H135.667V44.8809H138.65V43.8618H131.535V44.8809ZM139.182 53.348L140.136 50.6615H143.971L144.925 53.348H146.13L142.646 43.8618H141.461L137.977 53.348H139.182ZM140.497 49.6425L142.016 45.3626H142.09L143.61 49.6425H140.497ZM147.542 53.348H153.1V52.329H148.691V43.8618H147.542V53.348Z" fill="#E1372F"/>
</g>
<defs>
<clipPath id="clip0_669_1432">
<rect width="169" height="72" fill="white"/>
</clipPath>
</defs>
</svg>
