<svg width="32" height="128" viewBox="0 0 32 128" fill="none" xmlns="http://www.w3.org/2000/svg">
<rect width="128" height="128" rx="64" fill="#EC1C29"/>
<path d="M82.3958 30.9306C89.6586 30.9306 95.5646 61.542 95.5646 99.3374H106.1C106.1 58.6685 95.5247 25.7023 82.4358 25.6624H82.3958C74.9735 25.7023 68.3492 35.6001 63.9995 51.0854C59.6499 35.6001 53.0256 25.7023 45.6032 25.6624H45.5633C32.5143 25.7023 21.8995 58.6685 21.8995 99.3374H32.4345C32.4345 61.5819 38.3405 30.9306 45.6032 30.9306C52.866 30.9306 58.772 59.1873 58.772 94.0692H69.3069C69.267 59.1873 75.1331 30.9306 82.3958 30.9306Z" fill="#FCC917"/>
</svg>
