<svg width="80" height="80" viewBox="0 0 80 80" fill="none" xmlns="http://www.w3.org/2000/svg">
<rect width="80" height="80" rx="40" fill="#202020"/>
<path d="M43.4422 18.2529L43.425 27.8793L43.4078 38.2979C41.672 45.64 41.112 48.978 51.9684 61.7721C51.997 61.7491 52.0028 51.9509 51.997 39.9924L51.9798 18.2529H43.4422Z" fill="#B1060F"/>
<path d="M28 18.225V39.9874C28 51.9573 28.0115 61.7613 28.0286 61.7785C28.0458 61.7957 28.785 61.7212 29.6789 61.6238C30.5728 61.5264 31.8047 61.4003 32.4178 61.3487C33.3575 61.2685 36.1767 61.0909 36.4975 61.0852C36.595 61.0852 36.6007 60.5981 36.6121 51.8656L36.6293 42.6461C43.237 37.3941 37.2579 27.5077 34.9693 21.0997L28 18.2192V18.225Z" fill="#B1060F"/>
<path d="M28 18.225C31.7946 28.9709 37.437 45.2505 43.1386 61.0622C43.1443 61.068 43.7173 61.1023 44.4106 61.1367C46.5078 61.2399 49.1092 61.4633 51.0861 61.7097C51.5387 61.767 51.9341 61.7957 51.957 61.7727C46.8717 47.3347 41.2066 32.9901 36.6408 18.3797L36.5835 18.2192H32.2917L28 18.225Z" fill="#FB1E1E"/>
</svg>
