<svg width="92" height="96" viewBox="0 0 92 96" fill="none" xmlns="http://www.w3.org/2000/svg">
<rect width="96" height="96" rx="48" fill="#FFD300"/>
<path d="M40.036 9.675V16.0429H33.3274V22.4369H26.5403V28.962H19.7532V50.7123C19.7532 50.7123 31.6765 61.6136 33.4061 63.186V86.3251H62.7034V63.317C64.3806 61.7447 76.2515 50.6861 76.2515 50.6861V28.962H69.5168V22.4893H62.7034V16.0691H55.8901V9.675H40.036Z" fill="#FEFEFE"/>
<path d="M44.0735 81.2938H38.3346V52.6253H44.0735V81.2938Z" fill="#FFD300"/>
<path d="M50.8844 81.2937H45.1455V46.7291H50.8844V81.2937Z" fill="#FFD300"/>
<path d="M51.9612 81.2938H57.7001V52.6253H51.9612V81.2938Z" fill="#FFD300"/>
<path d="M30.4469 53.7517L24.708 48.6416V33.9668H30.4469V53.7517Z" fill="#2B2A29"/>
<path d="M37.258 60.146L31.519 54.5119V27.4681H37.258V60.146Z" fill="#2B2A29"/>
<path d="M44.0735 51.7344H38.3346V21.0744H44.0735V51.7344Z" fill="#2B2A29"/>
<path d="M50.8844 45.4449H45.1455V14.68H50.8844V45.4449Z" fill="#2B2A29"/>
<path d="M65.5878 53.7517L71.3267 48.6416V33.9668H65.5878V53.7517Z" fill="#2B2A29"/>
<path d="M51.9612 51.7344H57.7001V21.0744H51.9612V51.7344Z" fill="#2B2A29"/>
<path d="M58.7721 60.146L64.511 54.5119V27.4681H58.7721V60.146Z" fill="#2B2A29"/>
</svg>
