<svg width="56" height="50" viewBox="0 0 56 50" fill="none" xmlns="http://www.w3.org/2000/svg">
<path d="M0 6.25H3.11111V18.75H0V6.25ZM0 43.75H3.11111V31.25H0V43.75ZM29.5556 14.1875V20.6C27.748 21.2469 26.4444 22.9641 26.4444 25C26.4444 25.2922 26.4787 25.5734 26.53 25.8515L21.028 29.0406C20.524 27.7875 20.2222 26.4328 20.2222 25C20.2222 19.5 24.2869 14.95 29.5556 14.1875ZM42 25C42 26.4344 41.6967 27.7891 41.1927 29.0438L35.6922 25.8532C35.742 25.575 35.7778 25.2938 35.7778 25C35.7778 22.9625 34.4742 21.2469 32.6667 20.6V14.1875C37.9353 14.95 42 19.5 42 25ZM56 0V50H6.22222V0H56ZM40.2018 35.675L37.2975 33.9907C35.5382 35.2141 33.4087 35.9375 31.1111 35.9375C28.8136 35.9375 26.6824 35.214 24.9231 33.989L22.0205 35.6734C24.4673 37.7812 27.6422 39.0625 31.1111 39.0625C34.58 39.0625 37.7533 37.7812 40.2018 35.675ZM48.0573 33.0235L45.3616 31.4593L43.9257 30.6281C44.6833 28.9031 45.1126 27.0031 45.1126 25C45.1126 17.7734 39.6589 11.811 32.6682 11.0297V6.25H29.5571V11.0297C22.5664 11.811 17.1126 17.7734 17.1126 25C17.1126 27.0016 17.5404 28.9015 18.2995 30.625L16.8638 31.4578L16.8653 31.4593L14.1696 33.0235L15.7251 35.7297L28.1011 28.5516C28.9162 29.25 29.9585 29.6875 31.1142 29.6875C32.27 29.6875 33.3107 29.2516 34.1274 28.5516L34.2673 28.6344L46.5034 35.7297L48.0573 33.0235Z" fill="#F04F48"/>
</svg>
