<svg width="48" height="48" viewBox="0 0 48 48" fill="none" xmlns="http://www.w3.org/2000/svg">
<rect width="48" height="48" rx="24" fill="#F1F1F1"/>
<path d="M36.342 14.4864C37.0797 15.4393 37.6945 16.4844 38.2171 17.591L24.0157 28.073L18.0523 24.3228V19.8349L23.985 23.5543L36.342 14.4864Z" fill="#21A038"/>
<path d="M11.9972 24.0155C11.9972 23.8003 11.9972 23.6159 12.028 23.4007L8.43152 23.2163C8.43152 23.4622 8.40078 23.7388 8.40078 23.9847C8.40078 28.2882 10.1529 32.192 12.9809 35.02L15.5322 32.4687C13.3497 30.317 11.9972 27.3353 11.9972 24.0155Z" fill="url(#paint0_linear_669_180)"/>
<path d="M23.985 12.0272C24.2002 12.0272 24.3846 12.0272 24.5998 12.0579L24.7842 8.46146C24.5383 8.46146 24.2617 8.43073 24.0157 8.43073C19.7123 8.43073 15.8084 10.1828 12.9805 13.0108L15.5318 15.5621C17.6835 13.3797 20.6959 12.0272 23.985 12.0272Z" fill="url(#paint1_linear_669_180)"/>
<path d="M23.9844 36.0035C23.7692 36.0035 23.5848 36.0035 23.3696 35.9727L23.1852 39.5692C23.4311 39.5692 23.7077 39.5999 23.9536 39.5999C28.2571 39.5999 32.1609 37.8478 34.9889 35.0198L32.4376 32.4685C30.2858 34.6817 27.3042 36.0035 23.9844 36.0035Z" fill="url(#paint2_linear_669_180)"/>
<path d="M30.7469 14.1174L33.7901 11.8735C31.1158 9.72173 27.7038 8.39996 23.9844 8.39996V11.9964C26.505 12.0271 28.8411 12.7956 30.7469 14.1174Z" fill="url(#paint3_linear_669_180)"/>
<path d="M39.6016 24.0152C39.6016 23.0623 39.5094 22.1401 39.3557 21.2179L36.0052 23.7078C36.0052 23.8 36.0052 23.9229 36.0052 24.0152C36.0052 27.5501 34.4682 30.7162 32.0398 32.8987L34.4682 35.573C37.6036 32.745 39.6016 28.5952 39.6016 24.0152Z" fill="#21A038"/>
<path d="M23.9852 36.0035C20.4502 36.0035 17.2841 34.4665 15.1016 32.0381L12.4273 34.4665C15.2861 37.6326 19.4051 39.5999 23.9852 39.5999V36.0035Z" fill="url(#paint4_linear_669_180)"/>
<path d="M15.9626 15.1319L13.5342 12.4576C10.3681 15.3163 8.40078 19.4353 8.40078 24.0154H11.9972C11.9972 20.5112 13.5342 17.3143 15.9626 15.1319Z" fill="url(#paint5_linear_669_180)"/>
<defs>
<linearGradient id="paint0_linear_669_180" x1="12.6089" y1="34.5824" x2="8.92779" y2="23.9761" gradientUnits="userSpaceOnUse">
<stop offset="0.1444" stop-color="#F2E913"/>
<stop offset="0.3037" stop-color="#E7E518"/>
<stop offset="0.5823" stop-color="#CADB26"/>
<stop offset="0.891" stop-color="#A3CD39"/>
</linearGradient>
<linearGradient id="paint1_linear_669_180" x1="14.0056" y1="12.5938" x2="23.3364" y2="9.04942" gradientUnits="userSpaceOnUse">
<stop offset="0.0592" stop-color="#0FA8E0"/>
<stop offset="0.5385" stop-color="#0099F9"/>
<stop offset="0.9234" stop-color="#0291EB"/>
</linearGradient>
<linearGradient id="paint2_linear_669_180" x1="22.974" y1="36.5321" x2="34.0921" y2="34.0273" gradientUnits="userSpaceOnUse">
<stop offset="0.1226" stop-color="#A3CD39"/>
<stop offset="0.2846" stop-color="#86C339"/>
<stop offset="0.8693" stop-color="#21A038"/>
</linearGradient>
<linearGradient id="paint3_linear_669_180" x1="23.2454" y1="10.701" x2="32.4926" y2="13.5451" gradientUnits="userSpaceOnUse">
<stop offset="0.0566" stop-color="#0291EB"/>
<stop offset="0.79" stop-color="#0C8ACB"/>
</linearGradient>
<linearGradient id="paint4_linear_669_180" x1="13.3418" y1="35.0507" x2="23.2726" y2="38.7493" gradientUnits="userSpaceOnUse">
<stop offset="0.1324" stop-color="#F2E913"/>
<stop offset="0.2977" stop-color="#EBE716"/>
<stop offset="0.5306" stop-color="#D9E01F"/>
<stop offset="0.8023" stop-color="#BBD62D"/>
<stop offset="0.9829" stop-color="#A3CD39"/>
</linearGradient>
<linearGradient id="paint5_linear_669_180" x1="11.1373" y1="24.4498" x2="15.1176" y2="14.1288" gradientUnits="userSpaceOnUse">
<stop offset="0.0698" stop-color="#A3CD39"/>
<stop offset="0.2599" stop-color="#81C55F"/>
<stop offset="0.9216" stop-color="#0FA8E0"/>
</linearGradient>
</defs>
</svg>
