<svg width="80" height="80" viewBox="0 0 80 80" fill="none" xmlns="http://www.w3.org/2000/svg">
<rect width="80" height="80" rx="40" fill="#34E0A1"/>
<path d="M64.7088 32.0949L69.5288 26.8349H58.8288C47.4688 19.1149 32.5487 19.1149 21.2087 26.8349H10.4688L15.2887 32.0949C9.28875 37.5949 8.86875 46.9349 14.3888 52.9349C19.8888 58.9349 29.2287 59.3549 35.2287 53.8349L35.2487 53.8149L39.9888 58.9549L44.7088 53.8149C47.4288 56.3549 51.0087 57.7549 54.7287 57.7349C62.8687 57.7349 69.4888 51.1349 69.4888 42.9749C69.5288 38.8349 67.7688 34.8749 64.7088 32.0949ZM25.2488 52.9749C19.7288 52.9749 15.2687 48.4949 15.2687 42.9949C15.2687 37.4949 19.7488 33.0149 25.2488 33.0149C30.7688 33.0149 35.2287 37.4949 35.2287 42.9949C35.2287 48.4949 30.7688 52.9749 25.2488 52.9749ZM40.0088 42.7149C40.0088 36.1349 35.2288 30.5149 28.9288 28.0949C36.0288 25.1349 44.0088 25.1349 51.0887 28.0949C44.7887 30.4949 40.0088 36.1349 40.0088 42.7149ZM54.7487 52.9749C49.2287 52.9749 44.7687 48.4949 44.7687 42.9949C44.7687 37.4749 49.2487 33.0149 54.7487 33.0149C60.2687 33.0149 64.7287 37.4949 64.7287 42.9949C64.7487 48.5149 60.2687 52.9749 54.7487 52.9749ZM54.7487 37.7549C51.8487 37.7549 49.5088 40.0949 49.5088 42.9949C49.5088 45.8949 51.8487 48.2349 54.7487 48.2349C57.6488 48.2349 59.9888 45.8949 59.9888 42.9949C59.9888 40.0949 57.6488 37.7549 54.7487 37.7549ZM30.4888 42.9949C30.4888 45.8949 28.1488 48.2349 25.2488 48.2349C22.3488 48.2349 20.0088 45.8949 20.0088 42.9949C20.0088 40.0949 22.3488 37.7549 25.2488 37.7549C28.1287 37.7549 30.4688 40.0949 30.4888 42.9949Z" fill="black"/>
</svg>
