<svg width="48" height="48" viewBox="0 0 48 48" fill="none" xmlns="http://www.w3.org/2000/svg">
<rect width="48" height="48" rx="24" fill="#1DA1F2"/>
<path d="M38.8062 16.413C37.7875 16.8648 36.7643 17.2059 35.6304 17.321C36.7643 16.6389 37.6723 15.505 38.1241 14.2559C36.9902 14.938 35.8563 15.3898 34.6116 15.6202C33.4777 14.4862 32.0027 13.8041 30.417 13.8041C27.3519 13.8041 24.8581 16.2978 24.8581 19.3585C24.8581 19.8148 24.8581 20.2666 24.9733 20.6076C20.3225 20.3817 16.243 18.2246 13.5189 14.8229C12.952 15.6202 12.7261 16.6389 12.7261 17.6577C12.7261 19.5889 13.7448 21.2897 15.2198 22.3085C14.3118 22.1933 13.4082 21.9674 12.7261 21.6264C12.7261 21.6264 12.7261 21.6264 12.7261 21.7415C12.7261 24.4612 14.6529 26.729 17.1466 27.1852C16.6948 27.296 16.243 27.4111 15.676 27.4111C15.335 27.4111 14.9939 27.4111 14.6529 27.296C15.335 29.5638 17.3769 31.154 19.8707 31.154C17.9439 32.6289 15.5609 33.5325 12.952 33.5325C12.5002 33.5325 12.044 33.5325 11.5922 33.4218C14.0859 35.0075 17.0359 35.9155 20.0966 35.9155C30.417 35.9155 35.9714 27.4111 35.9714 20.0407C35.9714 19.8148 35.9714 19.5889 35.9714 19.3585C37.1053 18.5657 38.0134 17.5469 38.8062 16.413Z" fill="white"/>
</svg>
